<svg width="168" height="62" viewBox="0 0 168 62" fill="none" xmlns="http://www.w3.org/2000/svg">
<path d="M80.4485 8.99958C81.4949 8.96413 82.538 9.13921 83.5213 9.51534C84.2735 9.83332 84.9896 10.2381 85.6562 10.7221C86.0351 10.9899 86.3225 11.0196 86.5215 10.8146C86.7204 10.6097 86.8562 10.1303 86.932 9.36987H87.5826C87.5447 10.0774 87.5163 10.9392 87.4973 11.9553C87.4784 12.9714 87.4721 14.3192 87.4784 15.9987H86.8278C86.7655 15.2332 86.6419 14.4745 86.4583 13.7307C86.3038 13.1016 86.0463 12.5054 85.6972 11.9685C85.3059 11.4104 84.8025 10.9488 84.2224 10.6163C83.8264 10.3674 83.402 10.1719 82.9592 10.0344C82.515 9.89255 82.053 9.82122 81.5886 9.82281C80.6373 9.78251 79.7004 10.0757 78.9263 10.656C78.2184 11.2267 77.6591 11.9749 77.2999 12.8314C76.9022 13.7593 76.6301 14.7408 76.4914 15.7474C76.1925 17.7775 76.1925 19.8436 76.4914 21.8737C76.6275 22.8823 76.8975 23.866 77.2936 24.7963C77.6519 25.6524 78.2114 26.3997 78.92 26.9684C79.693 27.5512 80.6304 27.8458 81.5823 27.8049C82.0475 27.8053 82.51 27.7294 82.9529 27.5801C83.3908 27.4331 83.8139 27.2416 84.2161 27.0081C85.0831 26.5422 85.7571 25.7601 86.1109 24.8095C86.4884 23.6613 86.7219 22.4666 86.8057 21.2554H87.4784C87.4784 22.9879 87.4879 24.3886 87.5068 25.4575C87.5258 26.5265 87.5542 27.4236 87.5921 28.1487H86.9415C86.8657 27.3883 86.7362 26.9122 86.5594 26.7172C86.3825 26.5221 86.0825 26.5486 85.6657 26.7965C84.9616 27.2614 84.2222 27.665 83.455 28.0033C82.4918 28.3811 81.4671 28.5575 80.439 28.5223C78.5073 28.5664 76.5891 28.1751 74.8145 27.3751C73.2874 26.6787 71.9887 25.5294 71.0785 24.069C70.1602 22.5193 69.6978 20.721 69.749 18.8982C69.7112 17.0623 70.1889 15.2553 71.1227 13.7009C72.0564 12.2004 73.3678 10.9991 74.9124 10.2295C76.6448 9.36968 78.5443 8.94299 80.4611 8.98305" fill="#07367C"/>
<path d="M97.1773 14.0107C98.8385 14.0107 100.146 14.4659 101.1 15.3762C102.053 16.2865 102.529 17.8106 102.527 19.9486H93.6845L93.6277 19.446H98.4122C98.4342 18.6441 98.3962 17.8415 98.2985 17.0458C98.2372 16.4368 98.0837 15.842 97.8437 15.2836C97.7812 15.0979 97.6674 14.9358 97.5167 14.8181C97.366 14.7003 97.1852 14.6322 96.9973 14.6224C96.4857 14.6224 96.072 14.9993 95.7499 15.7498C95.4278 16.5003 95.2225 17.7863 95.1183 19.608L95.232 19.8196C95.2131 19.9953 95.2037 20.1719 95.2035 20.3486V20.9073C95.2035 22.1438 95.3678 23.1092 95.6994 23.7969C95.9572 24.4035 96.3975 24.9051 96.9531 25.2252C97.4213 25.4812 97.9408 25.6172 98.469 25.6219C98.9877 25.5975 99.5013 25.5042 99.9975 25.3442C100.629 25.159 101.261 24.6598 101.892 23.8465L102.376 24.0052C102.117 24.7667 101.744 25.48 101.27 26.1178C100.711 26.8972 99.9795 27.5229 99.1384 27.941C98.2973 28.359 97.3719 28.5571 96.4415 28.5181C95.3083 28.5331 94.1848 28.2976 93.1445 27.8271C92.1409 27.3561 91.3115 26.5551 90.7822 25.5458C90.1991 24.4879 89.9064 23.0651 89.9043 21.2776C89.9043 19.5827 90.2254 18.1996 90.8675 17.1284C91.4858 16.0786 92.3976 15.2533 93.4792 14.7645C94.6468 14.2486 95.9039 13.9919 97.171 14.0107" fill="#07367C"/>
<path d="M114.755 14.0106C115.451 13.9819 116.147 14.0849 116.808 14.3147C117.241 14.4708 117.633 14.73 117.954 15.0718C118.264 15.4337 118.481 15.8715 118.586 16.3447C118.733 17.0491 118.799 17.7695 118.782 18.4904V25.6746C118.782 26.4185 118.902 26.921 119.136 27.1888C119.369 27.4566 119.767 27.5856 120.367 27.5856V28.141L118.656 28.0749C117.891 28.0484 117.143 28.0352 116.404 28.0352C115.612 28.0352 114.84 28.0484 114.086 28.0749L112.387 28.141V27.5856C112.574 27.6082 112.764 27.5841 112.941 27.5152C113.118 27.4462 113.276 27.3344 113.404 27.1888C113.593 26.921 113.688 26.4185 113.688 25.6746V17.0588C113.697 16.7425 113.648 16.4274 113.546 16.1298C113.464 15.8977 113.309 15.7017 113.107 15.5744C112.859 15.4391 112.581 15.3752 112.301 15.3892C111.785 15.3838 111.283 15.5714 110.887 15.9182C110.685 16.08 110.523 16.2891 110.414 16.5286C110.304 16.7681 110.25 17.0313 110.255 17.2969V25.6746C110.255 26.4185 110.356 26.921 110.555 27.1888C110.681 27.3322 110.838 27.4428 111.012 27.5117C111.187 27.5805 111.374 27.6058 111.559 27.5856V28.141L109.98 28.0749C109.279 28.0484 108.565 28.0352 107.83 28.0352C107.038 28.0352 106.236 28.0484 105.423 28.0749L103.582 28.141V27.5856C104.165 27.5856 104.576 27.4533 104.814 27.1888C105.051 26.921 105.167 26.4185 105.167 25.6746V17.2704C105.207 16.6616 105.089 16.053 104.826 15.5082C104.602 15.128 104.195 14.9363 103.582 14.9363V14.3808C104.185 14.4337 104.769 14.4602 105.338 14.4602C106.285 14.4602 107.163 14.4304 107.984 14.3676C108.805 14.3048 109.563 14.2122 110.261 14.0899V15.9975C110.702 15.3018 111.341 14.7687 112.087 14.4734C112.944 14.149 113.85 13.9921 114.762 14.0106" fill="#07367C"/>
<path d="M127.807 10.0874V14.3854H130.58V14.9144H127.807V25.9172C127.785 26.1766 127.855 26.4352 128.003 26.6446C128.09 26.7275 128.193 26.7903 128.305 26.829C128.417 26.8677 128.536 26.8815 128.653 26.8694C128.907 26.8601 129.156 26.8018 129.389 26.6975C129.694 26.5668 129.966 26.3629 130.182 26.1024L130.608 26.433C130.211 27.071 129.669 27.5949 129.029 27.9571C128.273 28.3626 127.43 28.5584 126.582 28.5258C126.013 28.5343 125.446 28.4586 124.898 28.301C124.445 28.1817 124.024 27.9555 123.667 27.6397C123.258 27.262 122.98 26.7544 122.874 26.1949C122.747 25.4554 122.69 24.7046 122.703 23.9534V14.9111H120.553V14.3821H122.703V11.2413C123.621 11.2489 124.537 11.1547 125.435 10.9603C126.257 10.7749 127.053 10.477 127.801 10.0742" fill="#07367C"/>
<path d="M141.507 14.0108C142.061 13.9769 142.612 14.1198 143.086 14.4208C143.447 14.6722 143.725 15.0335 143.882 15.4556C144.027 15.8492 144.103 16.267 144.106 16.6888C144.121 17.0408 144.064 17.3921 143.938 17.7189C143.812 18.0457 143.621 18.3405 143.377 18.5832C142.858 19.0692 142.178 19.3221 141.482 19.2874C140.653 19.2874 140.021 19.11 139.587 18.7552C139.385 18.5943 139.222 18.3853 139.113 18.1456C139.003 17.9059 138.949 17.6423 138.956 17.3765C138.935 16.8482 139.079 16.3271 139.366 15.892C139.645 15.4938 139.996 15.1568 140.399 14.9002C140.088 14.8944 139.779 14.9575 139.493 15.0853C139.186 15.2142 138.904 15.3989 138.659 15.6309C138.408 15.8628 138.201 16.1421 138.049 16.4541C137.898 16.7606 137.82 17.1009 137.822 17.4459V25.4104C137.822 26.2612 138.011 26.8365 138.39 27.1362C138.769 27.436 139.391 27.5859 140.257 27.5859V28.1413L138.318 28.0752C137.459 28.0487 136.577 28.0355 135.671 28.0355C134.829 28.0355 133.97 28.0487 133.094 28.0752L131.143 28.1413V27.5859C131.726 27.5859 132.136 27.4536 132.374 27.1891C132.611 26.9213 132.728 26.4188 132.728 25.6749V17.2707C132.767 16.6619 132.649 16.0533 132.387 15.5085C132.163 15.1283 131.755 14.9366 131.143 14.9366V14.3811C131.746 14.434 132.333 14.4605 132.898 14.4605C133.846 14.4605 134.724 14.4307 135.545 14.3679C136.366 14.3051 137.124 14.2125 137.822 14.0902V15.9978C138.06 15.5623 138.379 15.1811 138.76 14.8771C139.127 14.5777 139.545 14.3533 139.991 14.2158C140.484 14.0697 140.995 13.9984 141.507 14.0042" fill="#07367C"/>
<path d="M148.47 28.328C147.184 28.328 146.254 28.0062 145.682 27.3626C145.124 26.7654 144.813 25.9626 144.816 25.1276C144.788 24.4628 144.978 23.8079 145.356 23.2729C145.733 22.7785 146.211 22.3796 146.755 22.1058C147.343 21.8006 147.953 21.5473 148.581 21.3487C149.212 21.1481 149.821 20.9498 150.406 20.7536C150.901 20.6045 151.373 20.3818 151.808 20.0924C151.972 19.9891 152.107 19.8437 152.201 19.67C152.295 19.4963 152.344 19.3002 152.345 19.1005V16.7168C152.34 16.4006 152.288 16.0871 152.19 15.7878C152.081 15.4444 151.88 15.1406 151.612 14.9116C151.237 14.6362 150.781 14.5075 150.324 14.548C150.033 14.5463 149.743 14.5863 149.462 14.667C149.206 14.7388 148.963 14.8502 148.739 14.9976C149.301 15.1629 149.804 15.5002 150.182 15.9663C150.476 16.3528 150.637 16.8313 150.64 17.3251C150.651 17.6505 150.584 17.9736 150.446 18.2651C150.307 18.5566 150.101 18.8074 149.847 18.9947C149.305 19.4078 148.648 19.6227 147.978 19.6064C147.657 19.6273 147.336 19.5795 147.034 19.4658C146.732 19.3521 146.456 19.1749 146.222 18.9451C146.015 18.729 145.852 18.471 145.743 18.1867C145.635 17.9025 145.582 17.5981 145.59 17.2921C145.576 16.7885 145.731 16.2958 146.029 15.9002C146.396 15.4615 146.844 15.105 147.346 14.8521C147.988 14.5222 148.675 14.2991 149.383 14.1909C150.207 14.0561 151.04 13.9898 151.875 13.9925C152.739 13.986 153.603 14.0702 154.452 14.2438C155.213 14.3954 155.919 14.7677 156.489 15.3183C156.895 15.7094 157.17 16.2279 157.272 16.7961C157.398 17.5391 157.455 18.2931 157.442 19.0476V26.1558C157.425 26.4603 157.458 26.7657 157.54 27.0584C157.567 27.1322 157.616 27.195 157.68 27.2377C157.744 27.2805 157.818 27.3011 157.894 27.2964C158.049 27.2942 158.2 27.2485 158.333 27.1642C158.475 27.0749 158.611 26.9857 158.743 26.8964L159.028 27.3493C158.568 27.7097 158.042 27.9664 157.483 28.1031C156.849 28.2645 156.197 28.3445 155.544 28.3412C154.319 28.3412 153.501 28.1395 153.097 27.7328C152.711 27.371 152.473 26.8681 152.43 26.3277C152.035 26.9274 151.512 27.4222 150.902 27.7725C150.152 28.1788 149.314 28.3747 148.47 28.3412V28.328ZM151.312 26.2219C151.499 26.226 151.686 26.1946 151.862 26.1294C152.05 26.0486 152.219 25.9269 152.358 25.7723V20.1684C152.171 20.4887 151.931 20.7718 151.65 21.0049C151.369 21.2429 151.088 21.5008 150.817 21.7752C150.533 22.0588 150.303 22.3952 150.138 22.767C149.943 23.2484 149.851 23.7687 149.869 24.2912C149.869 24.9987 150.005 25.4946 150.28 25.7789C150.414 25.9185 150.573 26.0285 150.748 26.1023C150.923 26.1762 151.111 26.2123 151.3 26.2087L151.312 26.2219Z" fill="#07367C"/>
<path d="M166.43 7.4082V25.6779C166.43 26.4185 166.547 26.921 166.784 27.1855C167.021 27.45 167.416 27.5856 168.016 27.5856V28.141L166.317 28.0749C165.563 28.0484 164.789 28.0352 163.995 28.0352C163.202 28.0352 162.4 28.0484 161.589 28.0749L159.751 28.141V27.5856C160.335 27.5856 160.746 27.4533 160.983 27.1855C161.219 26.9177 161.336 26.4185 161.336 25.6779V10.5788C161.376 9.96999 161.258 9.36125 160.995 8.81662C160.771 8.43641 160.364 8.24466 159.751 8.24466V7.69914C160.353 7.75204 160.937 7.77849 161.504 7.77849C162.449 7.77849 163.332 7.74763 164.153 7.68592C164.971 7.6231 165.732 7.53053 166.43 7.4082Z" fill="#07367C"/>
<path d="M69.5217 32.0039C70.0712 32.0237 70.7849 32.0403 71.6882 32.0568C72.5914 32.0733 73.4851 32.0833 74.3915 32.0833C75.2978 32.0833 76.2421 32.0833 77.1106 32.0568C77.979 32.0304 78.5885 32.0304 78.9486 32.0304C81.534 32.0304 83.4593 32.4194 84.7247 33.1974C85.9879 33.9777 86.6195 34.9728 86.6195 36.1961C86.5886 36.8997 86.3403 37.5737 85.9121 38.117C85.3353 38.8676 84.5988 39.4665 83.7615 39.8659C82.6013 40.4283 81.3562 40.774 80.0823 40.8875V40.9404C82.0235 41.0286 83.5804 41.3118 84.7531 41.7901C85.9258 42.2684 86.7743 42.8469 87.2985 43.5258C87.7905 44.11 88.071 44.8565 88.0912 45.6351C88.1223 46.4456 87.924 47.2477 87.5212 47.9406C87.1183 48.6335 86.5289 49.1864 85.8268 49.5297C84.3173 50.3629 82.2414 50.7795 79.5991 50.7795C79.1465 50.7795 78.4812 50.7662 77.6032 50.7398C76.7284 50.71 75.6736 50.6968 74.4451 50.6968C73.4977 50.6968 72.5819 50.6968 71.685 50.6968C70.7881 50.6968 70.0681 50.7299 69.5186 50.7662V50.2538C69.9604 50.2445 70.399 50.1733 70.8228 50.0422C70.9598 49.9925 71.083 49.9083 71.1816 49.797C71.2802 49.6858 71.3511 49.5508 71.3881 49.4041C71.4994 48.9374 71.5472 48.4566 71.5302 47.9759V34.8174C71.5486 34.3301 71.5007 33.8426 71.3881 33.3693C71.3472 33.2226 71.2734 33.0881 71.1729 32.9771C71.0724 32.8662 70.948 32.7819 70.8102 32.7313C70.3933 32.5948 69.9585 32.5278 69.5217 32.5329V32.0039ZM78.8064 32.5362C78.1748 32.5362 77.7517 32.685 77.5622 32.9858C77.3727 33.2867 77.2779 33.8983 77.2779 34.8174V47.9692C77.2779 48.8883 77.398 49.4835 77.6316 49.7579C77.8653 50.0323 78.3643 50.1678 79.1191 50.1678C80.1739 50.1678 80.9445 49.7678 81.4245 48.9611C81.9045 48.1544 82.1477 47.0138 82.1477 45.526C82.1477 44.1683 81.8035 43.1169 81.115 42.372C80.4265 41.627 79.2844 41.2556 77.6885 41.2578H75.6231V40.8082H78.0548C78.6738 40.8507 79.284 40.637 79.7539 40.213C80.1702 39.7771 80.4556 39.2231 80.575 38.6195C80.7306 37.9205 80.807 37.2047 80.8024 36.487C80.8024 35.1778 80.6508 34.1926 80.3476 33.5313C80.2192 33.22 80.0025 32.9575 79.7268 32.7795C79.4511 32.6015 79.1298 32.5166 78.8064 32.5362Z" fill="#07367C"/>
<path d="M96.8111 36.6445C98.4723 36.6445 99.7787 37.0997 100.73 38.01C101.682 38.9203 102.159 40.4444 102.161 42.5824H93.2994L93.2457 42.0798H98.027C98.0485 41.278 98.0115 40.4755 97.9165 39.6796C97.8532 39.071 97.6998 38.4765 97.4617 37.9174C97.399 37.7312 97.2847 37.5688 97.1334 37.451C96.982 37.3332 96.8006 37.2654 96.6122 37.2562C96.1037 37.2562 95.6869 37.6331 95.3679 38.3836C95.0489 39.1341 94.8373 40.4201 94.7363 42.2418L94.8468 42.4534C94.8279 42.6301 94.8184 42.8079 94.8184 42.9857V43.5411C94.7738 44.5311 94.9433 45.5189 95.3142 46.4307C95.5743 47.0397 96.0181 47.5426 96.5774 47.8622C97.0437 48.1207 97.5626 48.2579 98.0902 48.2623C98.6087 48.2365 99.1221 48.1432 99.6187 47.9846C100.25 47.7961 100.882 47.2969 101.514 46.4836L101.994 46.6423C101.74 47.4016 101.372 48.1137 100.904 48.7516C100.385 49.4669 99.7235 50.0548 98.9649 50.4741C98.0726 50.9507 97.0798 51.1838 96.0785 51.1518C94.9452 51.1675 93.8216 50.932 92.7814 50.4609C91.7779 49.9901 90.9478 49.1906 90.416 48.1829C89.8307 47.1228 89.5381 45.6989 89.5381 43.9114C89.5381 42.2165 89.8592 40.8334 90.5013 39.7622C91.1218 38.7126 92.0358 37.8884 93.1193 37.4016C94.288 36.8859 95.5461 36.6292 96.8143 36.6478" fill="#07367C"/>
<path d="M110.03 32.7305V37.0284H112.803V37.5607H110.03V48.5636C110.007 48.8241 110.077 49.0843 110.226 49.2942C110.314 49.3764 110.417 49.4388 110.529 49.4775C110.641 49.5161 110.759 49.5303 110.877 49.519C111.13 49.508 111.379 49.4498 111.613 49.3471C111.918 49.2162 112.19 49.0111 112.405 48.7487L112.832 49.0793C112.434 49.7166 111.892 50.2403 111.253 50.6034C110.497 51.0101 109.654 51.207 108.805 51.1754C108.237 51.1823 107.67 51.1066 107.122 50.9506C106.668 50.8249 106.247 50.5932 105.89 50.2728C105.48 49.8965 105.202 49.3883 105.098 48.8281C104.97 48.0886 104.913 47.3377 104.927 46.5865V37.5475H102.776V37.0284H104.927V33.8876C105.844 33.8963 106.76 33.8032 107.659 33.6099C108.483 33.4271 109.28 33.1314 110.03 32.7305Z" fill="#07367C"/>
<path d="M120.784 36.6445C122.095 36.6185 123.398 36.8611 124.621 37.3586C125.683 37.809 126.571 38.6161 127.147 39.653C127.754 40.7132 128.056 42.136 128.054 43.9213C128.052 45.7066 127.749 47.1304 127.147 48.1928C126.572 49.2267 125.683 50.0287 124.621 50.4707C122.145 51.392 119.442 51.392 116.966 50.4707C115.895 50.0334 114.998 49.2308 114.417 48.1928C113.811 47.1326 113.509 45.7088 113.511 43.9213C113.513 42.1338 113.815 40.711 114.417 39.653C114.998 38.6121 115.895 37.8044 116.966 37.3586C118.183 36.8682 119.48 36.6302 120.784 36.6577V36.6445ZM120.784 37.1867C120.22 37.1867 119.748 37.7179 119.369 38.7802C118.99 39.8426 118.802 41.5563 118.804 43.9213C118.804 46.2907 118.992 48.001 119.369 49.0524C119.748 50.1037 120.218 50.6327 120.784 50.6327C121.349 50.6327 121.823 50.1037 122.202 49.0524C122.581 48.001 122.767 46.2918 122.767 43.9213C122.767 41.5508 122.578 39.8382 122.202 38.7802C121.826 37.7223 121.352 37.1734 120.784 37.1734V37.1867Z" fill="#07367C"/>
<path d="M140.714 36.6448C141.409 36.618 142.103 36.721 142.764 36.9489C143.196 37.1072 143.588 37.3661 143.91 37.706C144.221 38.067 144.438 38.5052 144.542 38.9789C144.692 39.6829 144.759 40.4035 144.741 41.1246V48.3121C144.741 49.0527 144.861 49.5586 145.095 49.823C145.328 50.0875 145.726 50.2198 146.326 50.2198V50.7785C145.95 50.7587 145.379 50.7355 144.615 50.7124C143.85 50.6892 143.099 50.6694 142.363 50.6694C141.57 50.6694 140.784 50.6859 140.042 50.7124C139.299 50.7388 138.722 50.7587 138.343 50.7785V50.2198C138.53 50.243 138.721 50.2191 138.898 50.1502C139.076 50.0812 139.235 49.9691 139.363 49.823C139.552 49.5586 139.647 49.0527 139.647 48.3121V39.693C139.656 39.3778 139.608 39.0637 139.505 38.7673C139.422 38.5349 139.268 38.3381 139.066 38.2086C138.818 38.0733 138.54 38.0094 138.26 38.0234C137.743 38.0181 137.241 38.2069 136.846 38.5557C136.644 38.7165 136.482 38.9249 136.372 39.164C136.262 39.403 136.208 39.6659 136.214 39.9311V48.3121C136.214 49.0527 136.315 49.5586 136.514 49.823C136.64 49.9665 136.797 50.077 136.971 50.1459C137.146 50.2148 137.333 50.2401 137.518 50.2198V50.7785C137.158 50.7587 136.631 50.7355 135.939 50.7124C135.248 50.6892 134.524 50.6694 133.789 50.6694C132.996 50.6694 132.191 50.6859 131.382 50.7124C130.574 50.7388 129.955 50.7587 129.541 50.7785V50.2198C130.124 50.2198 130.535 50.0875 130.773 49.823C131.01 49.5586 131.126 49.0527 131.126 48.3121V39.9046C131.166 39.2958 131.048 38.6872 130.785 38.1425C130.561 37.7623 130.154 37.5738 129.541 37.5738V37.0283C130.144 37.0812 130.732 37.1076 131.297 37.1076C132.24 37.1076 133.122 37.0768 133.943 37.0151C134.706 36.9626 135.466 36.8699 136.22 36.7374V38.645C136.663 37.9499 137.303 37.4171 138.049 37.1209C138.906 36.7959 139.813 36.639 140.724 36.658" fill="#07367C"/>
<path d="M18.1875 41.4492H16.7695V45.7174H18.3486V41.7898L18.178 41.5881L18.1875 41.4492Z" fill="#07367C"/>
<path d="M18.3391 46.1562H16.7695V48.1366H18.3391V46.1562Z" fill="#07367C"/>
<path d="M19.3146 45.3369V42.9366L18.7998 42.3184V45.7038H19.3146V45.3369Z" fill="#07367C"/>
<path d="M0 0V26.0292C2.37726 21.4085 5.75098 17.4317 9.85319 14.4148C12.9947 12.1556 16.5057 10.5194 20.2117 9.5878C24.0865 8.63927 28.0753 8.30493 32.045 8.59596C37.9244 9.03822 43.6387 10.8295 48.7828 13.8428C49.7111 13.3604 50.5239 12.6655 51.1608 11.8095C52.0866 10.558 52.6036 9.02803 52.6356 7.44542C52.7967 14.4148 52.9514 20.1741 53.122 27.1434C53.1698 27.8071 52.9981 28.4678 52.6356 29.0147C52.3825 29.3831 52.0476 29.6815 51.6598 29.8842C51.2162 27.8465 50.5728 25.8622 49.7397 23.9629C48.6596 21.5097 46.8469 17.3837 42.9466 14.3024C37.5779 10.0573 31.4323 10.335 29.6164 10.4408C21.936 10.8904 16.9652 15.519 15.4051 17.1357C10.7374 21.9461 9.52791 27.5368 8.47311 32.7969C6.09824 44.613 8.11941 55.0836 10.2543 62H17.1294C17.4262 61.8016 17.7136 61.6363 17.9631 61.5041H18.2789V60.5982H17.9379V58.3897H16.523V60.2709V61.7091H15.9893V60.5982H15.5282V49.0631H13.9492V48.1374H14.3061V41.449H14.1892V40.9961H18.2568L18.4747 39.5579L20.5117 39.7728L20.717 40.3812L22.4002 40.2919C22.4476 39.7136 22.5852 39.1474 22.8076 38.6157C23.0703 37.9901 23.4323 37.4155 23.8782 36.9163L21.9391 34.407L25.2646 33.6664L28.7385 33.9243L35.7747 31.1967L42.7572 30.9818L59.1791 32.9953L59.2423 33.0217V0H0Z" fill="#07367C"/>
<path d="M19.3146 46.1562H18.7998V48.1366H19.3146V46.1562Z" fill="#07367C"/>
<path d="M42.4004 57.0697L41.3677 57.0003L27.3301 51.6543C27.4911 51.8758 27.6648 52.0973 27.8543 52.3155C28.8148 53.4493 29.9326 54.4256 31.1703 55.2117L39.6339 58.2864L43.4552 61.1032V61.986H50.8609L47.4344 60.604L56.836 60.7462L56.8644 60.7131C56.9686 60.3065 57.0696 59.9031 57.1802 59.4998C57.4518 59.4634 58.6676 59.427 59.2329 59.3907V58.1905L55.658 57.9326L42.4004 57.0697Z" fill="#07367C"/>
<path d="M42.4701 31.689L37.9414 31.851L50.5042 33.7223L51.1106 33.8678L59.0563 37.7855L59.2142 37.8649V34.1752L58.7689 33.9901L42.4606 31.6758" fill="#07367C"/>
<path d="M38.8156 49.6937C38.6386 48.3797 38.6004 47.0492 38.7019 45.7264C38.7208 45.6669 38.743 45.6074 38.7651 45.5478L24.4116 41.7656C24.3246 42.2785 24.2823 42.7986 24.2853 43.3195C24.3159 45.198 24.8847 47.0236 25.918 48.5597L39.602 53.1156C39.2377 52.0034 38.9744 50.8577 38.8156 49.6937Z" fill="#07367C"/>
<path d="M16.0465 45.4893V45.1323V44.6958V44.3057V43.9983V43.6709V41.4492H15.0391V45.7174H16.0465V45.4893Z" fill="#07367C"/>
<path d="M21.8225 59.1797H18.7812V60.4195V61.5403L23.2026 61.6494C22.4797 61.0214 21.9911 60.1471 21.8225 59.1797Z" fill="#07367C"/>
<path d="M16.0465 46.1562H15.0391V48.1366H16.0465V46.1562Z" fill="#07367C"/>
<path d="M21.993 49.8597L22.5394 49.83H22.5015C22.5015 49.5787 22.5015 49.3274 22.4794 49.0762H18.7812V58.5912H21.7909C21.8354 57.7331 22.1586 56.9166 22.7067 56.2769L25.7385 56.1844L21.9488 53.1163L21.993 49.8597Z" fill="#07367C"/>
<path d="M20.4769 44.3022L19.7158 43.4062V45.7206H21.2696V45.2511L21.2191 45.1916L20.799 44.699L20.4832 44.3088" fill="#07367C"/>
<path d="M58.4051 40.2421L46.8181 35.9805C45.7731 36.6783 44.8078 37.4992 43.9411 38.427C43.032 39.3965 42.2561 40.4936 41.6357 41.6869L56.3682 45.9551L58.4051 40.2421Z" fill="#07367C"/>
<path d="M29.2566 34.9233C27.9711 35.8024 26.8165 36.8752 25.8301 38.1071L40.2846 41.3273C41.6064 38.9962 43.4877 37.0677 45.7417 35.7333L31.9788 33.3926C31.0304 33.8211 30.1196 34.3356 29.2566 34.9299" fill="#07367C"/>
<path d="M40.3479 45.9948C40.1874 46.6764 40.0818 47.3709 40.0321 48.071C39.9176 49.88 40.165 51.694 40.7585 53.3972C40.4932 53.3443 50.3527 54.6238 55.3645 55.2552L55.4403 49.5323L55.4972 49.4034L40.3384 45.9551V45.9948" fill="#07367C"/>
<path d="M19.716 48.1366H22.454L22.4225 47.1712L21.2476 46.7183V46.1562H19.7002L19.716 48.1366Z" fill="#07367C"/>
</svg>
