<svg width="65" height="65" viewBox="0 0 65 65" fill="none" xmlns="http://www.w3.org/2000/svg">
<path d="M19.7031 43.4551H18.167V47.9298H19.8776V43.8121L19.6929 43.6007L19.7031 43.4551Z" fill="white"/>
<path d="M19.8674 48.3906H18.167V50.4668H19.8674V48.3906Z" fill="white"/>
<path d="M20.9239 47.5317V45.0153L20.3662 44.3672V47.9165H20.9239V47.5317Z" fill="white"/>
<path d="M0 0V27.2887C2.57537 22.4444 6.23023 18.2752 10.6743 15.1122C14.0776 12.7437 17.8812 11.0284 21.896 10.0517C26.0937 9.0573 30.415 8.70679 34.7154 9.01189C41.0844 9.47723 47.2746 11.3551 52.848 14.5126C53.8537 14.0069 54.7342 13.2783 55.4242 12.381C56.4271 11.0688 56.9873 9.46487 57.0219 7.80568C57.1964 15.1122 57.364 21.1502 57.5488 28.4568C57.6006 29.1526 57.4146 29.8453 57.0219 30.4186C56.7477 30.8048 56.3849 31.1177 55.9647 31.3302C55.4842 29.1939 54.7872 27.1136 53.8846 25.1224C52.7146 22.5505 50.7508 18.2248 46.5255 14.9944C40.7094 10.5439 34.0517 10.8351 32.0844 10.946C23.764 11.4174 18.3789 16.2699 16.6888 17.9649C11.6322 23.0081 10.3219 28.8692 9.1792 34.3838C6.60643 46.7717 8.79602 57.7489 11.1088 65H18.5568C18.8784 64.792 19.1898 64.6187 19.46 64.4801H19.8022V63.5304H19.4327V61.215H17.9V63.1872V64.695H17.3218V63.5304H16.8223V51.4371H15.1116V50.4666H15.4982V43.4546H15.3717V42.9798H19.7782L20.0143 41.472L22.221 41.6973L22.4434 42.3316L24.2669 42.2415C24.3182 41.6352 24.4673 41.0416 24.7082 40.4842C24.9929 39.8283 25.385 39.2259 25.868 38.7026L23.7674 36.0718L27.37 35.2954L31.1333 35.5658L38.7559 32.7062L46.3202 32.4809L64.1107 34.5918L64.1791 34.6195V0H0Z" fill="white"/>
<path d="M20.9239 48.3906H20.3662V50.4668H20.9239V48.3906Z" fill="white"/>
<path d="M45.9336 59.8318L44.8114 59.759L29.6074 54.1543C29.7819 54.3865 29.9701 54.6188 30.1753 54.8475C31.2159 56.0362 32.4269 57.0597 33.7677 57.8838L42.9366 61.1073L47.0763 64.0604V64.9859H55.0991L51.3871 63.5371L61.5721 63.6896L61.6029 63.6514C61.7158 63.2251 61.8253 62.8022 61.945 62.3794C62.2393 62.3413 63.5564 62.3031 64.1688 62.265V61.0068L60.296 60.7364L45.9336 59.8318Z" fill="white"/>
<path d="M46.0086 33.2228L41.1025 33.3927L54.7123 35.3545L55.3691 35.507L63.977 39.6144L64.1481 39.6976V35.8294L63.6657 35.6353L45.9983 33.209" fill="white"/>
<path d="M42.0509 52.0988C41.859 50.7212 41.8177 49.3263 41.9277 47.9395C41.9482 47.8771 41.9722 47.8147 41.9961 47.7523L26.4466 43.7871C26.3523 44.3248 26.3065 44.8701 26.3097 45.4162C26.3429 47.3856 26.9591 49.2995 28.0785 50.91L42.9028 55.6863C42.5082 54.5202 42.2229 53.3191 42.0509 52.0988Z" fill="white"/>
<path d="M17.3834 47.6907V47.3163V46.8588V46.4498V46.1274V45.7843V43.4551H16.292V47.9298H17.3834V47.6907Z" fill="white"/>
<path d="M23.6404 62.043H20.3457V63.3428V64.5178L25.1354 64.6322C24.3523 63.9738 23.823 63.0572 23.6404 62.043Z" fill="white"/>
<path d="M17.3834 48.3906H16.292V50.4668H17.3834V48.3906Z" fill="white"/>
<path d="M23.8251 52.2726L24.417 52.2414H24.3759C24.3759 51.978 24.3759 51.7146 24.352 51.4512H20.3457V61.4266H23.6062C23.6544 60.527 24.0045 59.671 24.5983 59.0004L27.8827 58.9033L23.7772 55.6868L23.8251 52.2726Z" fill="white"/>
<path d="M22.1829 46.4452L21.3584 45.5059V47.9321H23.0417V47.44L22.9869 47.3776L22.5319 46.8611L22.1898 46.4521" fill="white"/>
<path d="M63.2723 42.1905L50.7197 37.7227C49.5876 38.4543 48.5418 39.3149 47.603 40.2876C46.6181 41.304 45.7776 42.4542 45.1055 43.7052L61.0656 48.1799L63.2723 42.1905Z" fill="white"/>
<path d="M31.6945 36.6126C30.3018 37.5342 29.051 38.659 27.9824 39.9505L43.6415 43.3265C45.0734 40.8826 47.1115 38.8608 49.5534 37.4618L34.6436 35.0078C33.6161 35.4571 32.6294 35.9964 31.6945 36.6196" fill="white"/>
<path d="M43.7095 48.2213C43.5356 48.9359 43.4212 49.664 43.3674 50.398C43.2434 52.2945 43.5114 54.1963 44.1543 55.9819C43.8669 55.9264 54.548 57.2678 59.9775 57.9299L60.0596 51.93L60.1212 51.7948L43.6992 48.1797V48.2213" fill="white"/>
<path d="M21.3589 50.4668H24.3251L24.2909 49.4547L23.0182 48.9799V48.3906H21.3418L21.3589 50.4668Z" fill="white"/>
</svg>
