<svg width="145" height="52" viewBox="0 0 145 52" fill="none" xmlns="http://www.w3.org/2000/svg">
<g clip-path="url(#clip0_584_906)">
<path d="M69.4353 7.54728C70.3384 7.51755 71.2387 7.66439 72.0874 7.97985C72.7367 8.24655 73.3547 8.58601 73.93 8.99195C74.2571 9.21656 74.5052 9.24151 74.6769 9.0696C74.8486 8.89768 74.9658 8.49561 75.0312 7.85784H75.5927C75.56 8.45124 75.5355 9.17404 75.5191 10.0262C75.5028 10.8784 75.4973 12.0089 75.5028 13.4175H74.9413C74.8875 12.7755 74.7808 12.1392 74.6224 11.5153C74.4895 10.9871 74.2662 10.4868 73.9627 10.0373C73.6267 9.56867 73.1929 9.18139 72.6925 8.90322C72.3502 8.69563 71.984 8.53172 71.6023 8.41519C71.2189 8.29622 70.8201 8.2364 70.4193 8.23773C69.5983 8.20393 68.7896 8.44984 68.1215 8.9365C67.5105 9.41523 67.0278 10.0427 66.7178 10.7611C66.3745 11.5393 66.1396 12.3625 66.02 13.2067C65.762 14.9094 65.762 16.6422 66.02 18.3449C66.1374 19.1908 66.3704 20.0159 66.7123 20.7961C67.0216 21.5142 67.5045 22.1409 68.1161 22.6179C68.7833 23.1067 69.5923 23.3538 70.4138 23.3195C70.8154 23.3198 71.2146 23.2562 71.5968 23.1309C71.9748 23.0077 72.34 22.847 72.6871 22.6512C73.4354 22.2604 74.0171 21.6045 74.3225 20.8072C74.6483 19.8442 74.8499 18.8422 74.9222 17.8264H75.5028C75.5028 19.2794 75.5109 20.4542 75.5273 21.3507C75.5437 22.2473 75.5682 22.9997 75.6009 23.6079H75.0394C74.974 22.9729 74.8622 22.5708 74.7096 22.4072C74.5569 22.2436 74.298 22.2658 73.9382 22.4737C73.3305 22.8637 72.6924 23.2022 72.0302 23.4858C71.1989 23.8028 70.3145 23.9507 69.4271 23.9212C67.7599 23.9581 66.1043 23.63 64.5726 22.959C63.2546 22.3749 62.1337 21.411 61.3481 20.1861C60.5555 18.8864 60.1564 17.3782 60.2006 15.8493C60.168 14.3096 60.5803 12.794 61.3863 11.4903C62.1921 10.2318 63.324 9.22425 64.6571 8.57879C66.1524 7.85769 67.7918 7.49982 69.4462 7.53341" fill="white"/>
<path d="M83.873 11.7508C85.3068 11.7508 86.4352 12.1325 87.2584 12.896C88.0815 13.6595 88.4922 14.9378 88.4904 16.7309H80.8584L80.8093 16.3094H84.9388C84.9579 15.6368 84.9251 14.9637 84.8407 14.2963C84.7878 13.7856 84.6553 13.2867 84.4482 12.8184C84.3943 12.6626 84.296 12.5267 84.1659 12.4279C84.0358 12.3292 83.8798 12.272 83.7177 12.2638C83.2761 12.2638 82.919 12.5799 82.641 13.2094C82.363 13.8388 82.1858 14.9175 82.0959 16.4453L82.194 16.6228C82.1777 16.7701 82.1696 16.9182 82.1695 17.0664V17.5351C82.1695 18.5721 82.3112 19.3818 82.5974 19.9586C82.8199 20.4673 83.2 20.888 83.6795 21.1565C84.0834 21.3721 84.5318 21.4871 84.9879 21.492C85.4356 21.4703 85.8789 21.3911 86.3071 21.2563C86.8523 21.101 87.3974 20.6823 87.9425 20.0002L88.3596 20.1333C88.1367 20.772 87.8146 21.3702 87.4056 21.9051C86.923 22.5588 86.2916 23.0836 85.5656 23.4342C84.8397 23.7849 84.0409 23.951 83.2379 23.9183C82.2599 23.9308 81.2902 23.7334 80.3923 23.3387C79.5261 22.9437 78.8103 22.2719 78.3535 21.4254C77.8501 20.5381 77.5975 19.3448 77.5957 17.8456C77.5957 16.4241 77.8728 15.2641 78.4271 14.3656C78.9607 13.4852 79.7477 12.793 80.6812 12.383C81.6889 11.9503 82.7739 11.735 83.8676 11.7508" fill="white"/>
<path d="M99.044 11.7516C99.6448 11.7289 100.245 11.8153 100.816 12.0067C101.189 12.1376 101.528 12.355 101.805 12.6417C102.072 12.9452 102.26 13.3124 102.35 13.7092C102.477 14.3 102.534 14.9043 102.519 15.5089V21.5343C102.519 22.1582 102.623 22.5797 102.825 22.8043C103.026 23.0289 103.37 23.1371 103.888 23.1371V23.6029L102.41 23.5475C101.751 23.5253 101.105 23.5142 100.467 23.5142C99.7836 23.5142 99.1167 23.5253 98.4661 23.5475L96.9997 23.6029V23.1371C97.1614 23.1561 97.3253 23.1359 97.4779 23.078C97.6304 23.0202 97.7673 22.9264 97.8774 22.8043C98.0409 22.5797 98.1227 22.1582 98.1227 21.5343V14.3082C98.1303 14.0429 98.0887 13.7786 98 13.529C97.9297 13.3343 97.796 13.1699 97.6212 13.0632C97.4071 12.9497 97.1672 12.8961 96.9261 12.9079C96.4802 12.9034 96.0472 13.0607 95.705 13.3515C95.5313 13.4873 95.3915 13.6626 95.2968 13.8635C95.2021 14.0644 95.1551 14.2851 95.1598 14.5078V21.5343C95.1598 22.1582 95.2471 22.5797 95.4188 22.8043C95.5278 22.9246 95.663 23.0173 95.8134 23.0751C95.9639 23.1329 96.1256 23.1541 96.2856 23.1371V23.6029L94.9227 23.5475C94.3176 23.5253 93.7016 23.5142 93.0638 23.5142C92.3823 23.5142 91.6909 23.5253 90.9895 23.5475L89.4004 23.6029V23.1371C89.9037 23.1371 90.2581 23.0262 90.4634 22.8043C90.6679 22.5797 90.7687 22.1582 90.7687 21.5343V14.4857C90.8026 13.9751 90.701 13.4646 90.4743 13.0077C90.2808 12.6888 89.9292 12.528 89.4004 12.528V12.0622C89.921 12.1065 90.428 12.1287 90.9159 12.1287C91.7336 12.1287 92.4914 12.1037 93.2 12.0511C93.9087 11.9984 94.5629 11.9207 95.1653 11.8181V13.4181C95.5458 12.8346 96.0969 12.3874 96.7408 12.1398C97.4805 11.8677 98.263 11.7361 99.0494 11.7516" fill="white"/>
<path d="M110.31 8.46031V12.0651H112.703V12.5087H110.31V21.7369C110.291 21.9544 110.351 22.1713 110.479 22.3469C110.554 22.4164 110.643 22.4691 110.74 22.5016C110.837 22.5341 110.939 22.5456 111.04 22.5355C111.259 22.5277 111.474 22.4788 111.675 22.3913C111.939 22.2817 112.173 22.1107 112.36 21.8922L112.728 22.1695C112.385 22.7046 111.917 23.144 111.365 23.4478C110.712 23.7879 109.985 23.9521 109.252 23.9247C108.762 23.9319 108.273 23.8684 107.799 23.7362C107.408 23.6361 107.045 23.4464 106.736 23.1816C106.384 22.8647 106.144 22.439 106.052 21.9698C105.943 21.3496 105.893 20.7199 105.905 20.0898V12.506H104.049V12.0623H105.905V9.42805C106.697 9.43584 107.487 9.35682 108.263 9.19235C108.972 9.03687 109.659 8.78701 110.304 8.44922" fill="white"/>
<path d="M122.131 11.7519C122.609 11.7236 123.084 11.8435 123.493 12.0957C123.804 12.3066 124.044 12.6096 124.18 12.9636C124.306 13.2937 124.371 13.6441 124.374 13.9979C124.387 14.293 124.338 14.5875 124.23 14.8616C124.122 15.1356 123.957 15.3829 123.747 15.5868C123.299 15.9941 122.712 16.2062 122.112 16.1774C121.396 16.1774 120.855 16.0286 120.49 15.731C120.315 15.5961 120.175 15.4208 120.08 15.2198C119.985 15.0187 119.939 14.7976 119.945 14.5747C119.927 14.1316 120.051 13.6946 120.299 13.3297C120.54 12.9957 120.842 12.713 121.19 12.4978C120.922 12.493 120.655 12.5459 120.408 12.6531C120.143 12.7611 119.9 12.916 119.688 13.1106C119.472 13.3051 119.294 13.5394 119.162 13.8011C119.032 14.0581 118.964 14.3436 118.966 14.6329V21.3128C118.966 22.0264 119.13 22.5089 119.457 22.7603C119.784 23.0117 120.321 23.1374 121.068 23.1374V23.6032L119.394 23.5478C118.653 23.5256 117.891 23.5145 117.11 23.5145C116.383 23.5145 115.642 23.5256 114.886 23.5478L113.201 23.6032V23.1374C113.705 23.1374 114.059 23.0265 114.264 22.8046C114.469 22.58 114.569 22.1586 114.569 21.5347V14.486C114.603 13.9754 114.502 13.4649 114.275 13.008C114.082 12.6891 113.73 12.5283 113.201 12.5283V12.0625C113.722 12.1068 114.226 12.129 114.717 12.129C115.534 12.129 116.292 12.1041 117.001 12.0514C117.71 11.9987 118.364 11.921 118.966 11.8184V13.4184C119.167 13.0544 119.438 12.7348 119.762 12.4784C120.079 12.2273 120.44 12.0392 120.825 11.9238C121.25 11.8014 121.689 11.7416 122.131 11.7464" fill="white"/>
<path d="M128.144 23.7579C127.034 23.7579 126.232 23.488 125.738 22.9482C125.256 22.4474 124.988 21.7741 124.991 21.0738C124.966 20.5162 125.131 19.9669 125.457 19.5182C125.782 19.1036 126.195 18.769 126.664 18.5393C127.171 18.2833 127.698 18.0709 128.24 17.9044C128.785 17.7361 129.31 17.5698 129.815 17.4052C130.243 17.2802 130.65 17.0934 131.025 16.8507C131.166 16.7641 131.283 16.6421 131.364 16.4964C131.445 16.3507 131.488 16.1862 131.489 16.0188V14.0195C131.485 13.7543 131.44 13.4914 131.355 13.2404C131.261 12.9524 131.088 12.6976 130.856 12.5055C130.532 12.2745 130.139 12.1666 129.744 12.2005C129.493 12.1991 129.243 12.2327 129 12.3003C128.78 12.3606 128.569 12.454 128.376 12.5776C128.862 12.7162 129.295 12.9991 129.622 13.3901C129.875 13.7142 130.014 14.1156 130.017 14.5297C130.026 14.8026 129.969 15.0736 129.849 15.3181C129.73 15.5626 129.552 15.7729 129.333 15.9301C128.865 16.2765 128.298 16.4567 127.719 16.443C127.443 16.4606 127.166 16.4205 126.905 16.3251C126.644 16.2298 126.406 16.0812 126.204 15.8885C126.025 15.7072 125.884 15.4908 125.791 15.2524C125.697 15.014 125.652 14.7587 125.659 14.502C125.646 14.0797 125.78 13.6665 126.037 13.3346C126.354 12.9667 126.741 12.6677 127.174 12.4556C127.728 12.1789 128.321 11.9918 128.932 11.901C129.644 11.788 130.363 11.7324 131.083 11.7347C131.829 11.7292 132.574 11.7998 133.307 11.9454C133.964 12.0726 134.573 12.3848 135.065 12.8466C135.416 13.1746 135.653 13.6095 135.741 14.0861C135.85 14.7101 135.9 15.3435 135.888 15.9772V21.9361C135.873 22.1915 135.902 22.4476 135.973 22.6931C135.996 22.755 136.038 22.8077 136.093 22.8436C136.148 22.8794 136.213 22.8967 136.278 22.8928C136.412 22.8909 136.542 22.8526 136.657 22.7819C136.779 22.707 136.897 22.6321 137.011 22.5573L137.256 22.9371C136.86 23.2394 136.406 23.4547 135.924 23.5694C135.376 23.7047 134.814 23.7718 134.25 23.769C133.192 23.769 132.486 23.5999 132.138 23.2588C131.805 22.9553 131.599 22.5335 131.562 22.0803C131.221 22.5833 130.77 22.9982 130.243 23.2921C129.596 23.6328 128.873 23.7971 128.144 23.769V23.7579ZM130.598 21.9916C130.759 21.995 130.92 21.9687 131.072 21.914C131.234 21.8462 131.38 21.7441 131.5 21.6145V16.9144C131.338 17.183 131.132 17.4205 130.889 17.616C130.647 17.8156 130.404 18.0319 130.17 18.2621C129.925 18.5 129.726 18.782 129.584 19.0939C129.415 19.4986 129.336 19.9359 129.352 20.375C129.352 20.9656 129.469 21.3816 129.706 21.62C129.822 21.7371 129.959 21.8293 130.11 21.8913C130.262 21.9532 130.424 21.9835 130.587 21.9805L130.598 21.9916Z" fill="white"/>
<path d="M143.646 6.21484V21.5378C143.646 22.159 143.747 22.5804 143.951 22.805C144.155 23.0296 144.496 23.1378 145.014 23.1378V23.6036L143.548 23.5482C142.897 23.526 142.229 23.5149 141.544 23.5149C140.859 23.5149 140.167 23.526 139.467 23.5482L137.881 23.6036V23.1378C138.384 23.1378 138.739 23.0269 138.944 22.805C139.146 22.5804 139.249 22.159 139.249 21.5378V8.87405C139.283 8.36344 139.182 7.85288 138.955 7.39609C138.761 7.07721 138.41 6.91639 137.881 6.91639V6.45886C138.401 6.50322 138.905 6.52541 139.394 6.52541C140.21 6.52541 140.972 6.49953 141.681 6.44777C142.386 6.39508 143.043 6.31744 143.646 6.21484Z" fill="white"/>
<path d="M60.0037 26.8418C60.478 26.8584 61.094 26.8723 61.8735 26.8889C62.6531 26.9056 63.4245 26.9083 64.2068 26.9083C64.989 26.9083 65.804 26.9083 66.5536 26.8889C67.3032 26.8695 67.8292 26.864 68.14 26.864C70.3714 26.864 72.0332 27.1903 73.1253 27.8428C74.2174 28.4954 74.7626 29.3337 74.7607 30.3578C74.7346 30.948 74.5203 31.5136 74.1502 31.9689C73.6524 32.5984 73.0167 33.1007 72.294 33.4357C71.2926 33.9074 70.218 34.1973 69.1185 34.2926V34.3369C70.7939 34.4109 72.1377 34.6484 73.1498 35.0496C74.162 35.4507 74.8943 35.9359 75.3468 36.5053C75.7714 36.9953 76.0135 37.6214 76.0309 38.2744C76.0578 38.9542 75.8866 39.6269 75.5389 40.2081C75.1912 40.7892 74.6825 41.2529 74.0766 41.5409C72.7737 42.2397 70.982 42.589 68.7015 42.589C68.3108 42.589 67.7366 42.5779 66.9788 42.5558C66.2238 42.5308 65.3134 42.5197 64.2531 42.5197C63.4354 42.5197 62.6449 42.5197 61.8708 42.5197C61.0967 42.5197 60.4753 42.5474 60.001 42.5779V42.1481C60.3823 42.1403 60.7609 42.0806 61.1267 41.9707C61.2449 41.929 61.3512 41.8584 61.4363 41.7651C61.5214 41.6717 61.5826 41.5586 61.6146 41.4355C61.7106 41.0441 61.7519 40.6408 61.7373 40.2376V29.2015C61.7531 28.7928 61.7118 28.3839 61.6146 27.987C61.5793 27.8639 61.5156 27.7511 61.4288 27.6581C61.3421 27.565 61.2348 27.4943 61.1158 27.4518C60.756 27.3374 60.3807 27.2812 60.0037 27.2855V26.8418ZM68.0173 27.2882C67.4722 27.2882 67.1042 27.413 66.9434 27.6653C66.7826 27.9177 66.6981 28.4307 66.6981 29.2015V40.2321C66.6981 41.0029 66.8016 41.5021 67.0033 41.7322C67.2051 41.9624 67.6357 42.0761 68.2872 42.0761C69.1976 42.0761 69.8626 41.7405 70.2769 41.0639C70.6912 40.3874 70.9011 39.4307 70.9011 38.1857C70.9011 37.0433 70.604 36.1606 70.0098 35.5376C69.4156 34.9146 68.4298 34.6031 67.0524 34.6031H65.2698V34.226H67.3686C67.9028 34.2617 68.4295 34.0824 68.835 33.7269C69.1937 33.3619 69.44 32.8984 69.5437 32.3931C69.6779 31.8059 69.7438 31.2047 69.74 30.6018C69.74 29.5038 69.6091 28.6774 69.3475 28.1229C69.2367 27.8618 69.0496 27.6416 68.8117 27.4923C68.5737 27.343 68.2964 27.2718 68.0173 27.2882Z" fill="white"/>
<path d="M83.5566 30.7344C84.9904 30.7344 86.1179 31.1161 86.9392 31.8796C87.7606 32.643 88.1722 33.9214 88.174 35.7145H80.5256L80.4793 35.293H84.606C84.6246 34.6205 84.5927 33.9475 84.5106 33.2799C84.456 32.7695 84.3236 32.2709 84.1181 31.8019C84.064 31.6458 83.9654 31.5096 83.8348 31.4108C83.7041 31.312 83.5475 31.2551 83.3849 31.2474C82.9461 31.2474 82.5863 31.5635 82.311 32.1929C82.0357 32.8224 81.8531 33.901 81.7658 35.4289L81.8612 35.6063C81.8449 35.7546 81.8367 35.9036 81.8367 36.0528V36.5186C81.7982 37.3489 81.9445 38.1774 82.2646 38.9421C82.4891 39.4529 82.8721 39.8747 83.3549 40.1428C83.7574 40.3596 84.2052 40.4747 84.6605 40.4783C85.1081 40.4567 85.5512 40.3784 85.9798 40.2454C86.5249 40.0873 87.0701 39.6686 87.6152 38.9865L88.0295 39.1196C87.8106 39.7565 87.4932 40.3537 87.0892 40.8887C86.6415 41.4886 86.0703 41.9817 85.4156 42.3334C84.6454 42.7331 83.7885 42.9286 82.9243 42.9018C81.9462 42.9149 80.9764 42.7174 80.0786 42.3223C79.2125 41.9274 78.496 41.2569 78.037 40.4118C77.5319 39.5226 77.2793 38.3284 77.2793 36.8292C77.2793 35.4076 77.5564 34.2476 78.1106 33.3492C78.6461 32.4689 79.4351 31.7776 80.3703 31.3694C81.3789 30.9368 82.4648 30.7215 83.5594 30.7371" fill="white"/>
<path d="M94.967 27.4512V31.0559H97.3602V31.5024H94.967V40.7305C94.9472 40.949 95.0074 41.1673 95.136 41.3433C95.2119 41.4123 95.3009 41.4646 95.3975 41.497C95.4941 41.5295 95.5962 41.5413 95.6975 41.5319C95.916 41.5227 96.131 41.4738 96.3326 41.3877C96.5965 41.2779 96.831 41.1059 97.0168 40.8858L97.3847 41.1631C97.0417 41.6976 96.5733 42.1369 96.0219 42.4414C95.3697 42.7825 94.6423 42.9476 93.9095 42.9211C93.4189 42.9269 92.93 42.8634 92.4566 42.7326C92.0647 42.6272 91.7012 42.4328 91.3936 42.1641C91.0399 41.8485 90.7992 41.4222 90.7095 40.9524C90.5997 40.3322 90.5504 39.7024 90.5623 39.0724V31.4913H88.7061V31.0559H90.5623V28.4217C91.3541 28.4289 92.1444 28.3509 92.92 28.1888C93.6312 28.0354 94.3195 27.7874 94.967 27.4512Z" fill="white"/>
<path d="M104.248 30.736C105.38 30.7142 106.505 30.9177 107.56 31.3349C108.476 31.7127 109.243 32.3896 109.74 33.2593C110.264 34.1485 110.524 35.3417 110.523 36.8391C110.521 38.3365 110.26 39.5306 109.74 40.4217C109.244 41.2888 108.476 41.9615 107.56 42.3322C105.423 43.1048 103.09 43.1048 100.953 42.3322C100.029 41.9654 99.2539 41.2922 98.753 40.4217C98.2297 39.5325 97.9689 38.3383 97.9707 36.8391C97.9725 35.3399 98.2333 34.1466 98.753 33.2593C99.2547 32.3862 100.029 31.7088 100.953 31.3349C102.003 30.9236 103.123 30.724 104.248 30.747V30.736ZM104.248 31.1907C103.761 31.1907 103.354 31.6362 103.027 32.5272C102.7 33.4183 102.537 34.8555 102.539 36.8391C102.539 38.8263 102.702 40.2608 103.027 41.1426C103.354 42.0244 103.76 42.4681 104.248 42.4681C104.736 42.4681 105.145 42.0244 105.472 41.1426C105.799 40.2608 105.96 38.8273 105.96 36.8391C105.96 34.8509 105.796 33.4146 105.472 32.5272C105.148 31.6399 104.739 31.1796 104.248 31.1796V31.1907Z" fill="white"/>
<path d="M121.45 30.734C122.05 30.7115 122.649 30.7979 123.219 30.9891C123.592 31.1218 123.93 31.3389 124.209 31.624C124.477 31.9268 124.665 32.2943 124.754 32.6916C124.883 33.2821 124.941 33.8865 124.926 34.4912V40.5195C124.926 41.1406 125.029 41.5649 125.231 41.7867C125.433 42.0085 125.776 42.1194 126.294 42.1194V42.5881C125.969 42.5714 125.476 42.552 124.817 42.5326C124.157 42.5132 123.508 42.4965 122.873 42.4965C122.189 42.4965 121.51 42.5104 120.87 42.5326C120.229 42.5548 119.73 42.5714 119.403 42.5881V42.1194C119.565 42.1389 119.73 42.1189 119.883 42.061C120.036 42.0032 120.173 41.9092 120.284 41.7867C120.447 41.5649 120.529 41.1406 120.529 40.5195V33.2906C120.537 33.0262 120.495 32.7628 120.406 32.5141C120.335 32.3192 120.202 32.1542 120.027 32.0455C119.813 31.9321 119.573 31.8785 119.332 31.8902C118.886 31.8853 118.452 32.0437 118.111 32.3367C117.937 32.4715 117.797 32.6463 117.702 32.8468C117.608 33.0473 117.561 33.2678 117.566 33.4902V40.5195C117.566 41.1406 117.653 41.5649 117.825 41.7867C117.934 41.907 118.069 41.9997 118.22 42.0575C118.37 42.1152 118.532 42.1364 118.692 42.1194V42.5881C118.381 42.5714 117.926 42.552 117.329 42.5326C116.732 42.5132 116.108 42.4965 115.473 42.4965C114.789 42.4965 114.096 42.5104 113.396 42.5326C112.695 42.5548 112.164 42.5714 111.807 42.5881V42.1194C112.31 42.1194 112.664 42.0085 112.87 41.7867C113.074 41.5649 113.175 41.1406 113.175 40.5195V33.468C113.209 32.9574 113.107 32.447 112.881 31.9901C112.687 31.6712 112.335 31.5131 111.807 31.5131V31.0556C112.327 31.1 112.834 31.1222 113.322 31.1222C114.136 31.1222 114.898 31.0963 115.606 31.0445C116.265 31.0005 116.921 30.9228 117.572 30.8116V32.4115C117.954 31.8294 118.504 31.3827 119.147 31.1332C119.888 30.8609 120.671 30.7293 121.458 30.745" fill="white"/>
<path d="M15.6975 34.7637H14.4736V38.3435H15.8365V35.0493L15.6893 34.8801L15.6975 34.7637Z" fill="white"/>
<path d="M15.8283 38.7109H14.4736V40.3719H15.8283V38.7109Z" fill="white"/>
<path d="M16.6709 38.0238V36.0107L16.2266 35.4922V38.3316H16.6709V38.0238Z" fill="white"/>
<path d="M0 0V21.831C2.0518 17.9555 4.96364 14.6201 8.50424 12.0898C11.2156 10.195 14.246 8.82275 17.4446 8.04138C20.7889 7.24584 24.2317 6.96543 27.6579 7.20951C32.7321 7.58179 37.6639 9.08409 42.1042 11.6101C42.9054 11.2055 43.6069 10.6227 44.1566 9.90476C44.9557 8.85507 45.4019 7.5719 45.4295 6.24455C45.5686 12.0898 45.7021 16.9202 45.8493 22.7654C45.8906 23.3221 45.7424 23.8762 45.4295 24.3349C45.2111 24.6439 44.922 24.8942 44.5873 25.0641C44.2045 23.3551 43.6491 21.6908 42.9301 20.0979C41.9979 18.0404 40.4333 14.5799 37.067 11.9955C32.4333 8.43513 27.1291 8.66805 25.5618 8.75679C18.9328 9.1339 14.6426 13.0159 13.2961 14.3719C9.26744 18.4064 8.22349 23.0954 7.3131 27.5071C5.26336 37.4174 7.00782 46.1991 8.85041 52H14.7843C15.0405 51.8336 15.2886 51.695 15.5039 51.5841H15.7765V50.8243H15.4821V48.972H14.261V50.5498V51.756H13.8003V50.8243H13.4024V41.1497H12.0395V40.3733H12.3475V34.7637H12.2466V34.3838H15.7574L15.9454 33.1776L17.7035 33.3579L17.8807 33.8653L19.3335 33.7932C19.3744 33.3082 19.4932 32.8333 19.6851 32.3874C19.9119 31.8626 20.2243 31.3807 20.6092 30.9621L18.9356 28.8575L21.8057 28.2363L24.804 28.4526L30.8769 26.165L36.9035 25.9847L51.0772 27.6734L51.1317 27.6956V0H0Z" fill="white"/>
<path d="M16.6709 38.7109H16.2266V40.3719H16.6709V38.7109Z" fill="white"/>
<path d="M36.595 47.8662L35.701 47.808L23.5879 43.3242C23.7269 43.51 23.8768 43.6958 24.0404 43.8788C24.8694 44.8297 25.8342 45.6486 26.9024 46.3078L34.2073 48.8866L37.5054 51.2491V51.9895H43.8972L40.9398 50.8304L49.0543 50.9524L49.0788 50.9219C49.1688 50.5809 49.256 50.2426 49.3514 49.9043C49.5858 49.8738 50.6352 49.8433 51.1231 49.8128V48.8062L48.0376 48.5899L36.595 47.8662Z" fill="white"/>
<path d="M36.6557 26.5775L32.7471 26.7134L43.59 28.2828L44.1133 28.4048L50.9712 31.6907L51.1075 31.7573V28.6627L50.7232 28.5074L36.6476 26.5664" fill="white"/>
<path d="M33.5021 41.6806C33.3493 40.5785 33.3163 39.4626 33.404 38.3532C33.4203 38.3033 33.4394 38.2533 33.4585 38.2034L21.0701 35.0312C20.995 35.4614 20.9585 35.8976 20.9611 36.3345C20.9875 37.91 21.4784 39.4412 22.3703 40.7295L34.1808 44.5506C33.8664 43.6178 33.6392 42.6569 33.5021 41.6806Z" fill="white"/>
<path d="M13.85 38.1521V37.8527V37.4866V37.1594V36.9016V36.6271V34.7637H12.9805V38.3435H13.85V38.1521Z" fill="white"/>
<path d="M18.8348 49.6348H16.21V50.6746V51.6146L20.026 51.7061C19.4021 51.1794 18.9804 50.4461 18.8348 49.6348Z" fill="white"/>
<path d="M13.85 38.7109H12.9805V40.3719H13.85V38.7109Z" fill="white"/>
<path d="M18.982 41.8173L19.4536 41.7924H19.4209C19.4209 41.5816 19.4209 41.3709 19.4018 41.1602H16.21V49.1405H18.8076C18.846 48.4208 19.1249 47.736 19.598 47.1995L22.2147 47.1219L18.9439 44.5486L18.982 41.8173Z" fill="white"/>
<path d="M17.6735 37.1558L17.0166 36.4043V38.3453H18.3577V37.9516L18.314 37.9017L17.9515 37.4885L17.679 37.1613" fill="white"/>
<path d="M50.4091 33.752L40.4085 30.1777C39.5065 30.763 38.6733 31.4515 37.9253 32.2297C37.1407 33.0428 36.471 33.963 35.9355 34.9637L48.651 38.5435L50.4091 33.752Z" fill="white"/>
<path d="M25.2513 29.2897C24.1418 30.027 23.1453 30.9268 22.2939 31.96L34.7696 34.6608C35.9104 32.7057 37.5342 31.0882 39.4796 29.9691L27.6009 28.0059C26.7823 28.3653 25.9962 28.7967 25.2513 29.2953" fill="white"/>
<path d="M34.8234 38.5762C34.6849 39.1479 34.5937 39.7304 34.5508 40.3176C34.452 41.8348 34.6656 43.3563 35.1778 44.7847C34.9488 44.7404 43.4585 45.8135 47.7842 46.3431L47.8496 41.5432L47.8987 41.4351L34.8152 38.543V38.5762" fill="white"/>
<path d="M17.0166 40.3719H19.3798L19.3525 39.5622L18.3385 39.1823V38.7109H17.0029L17.0166 40.3719Z" fill="white"/>
</g>
<defs>
<clipPath id="clip0_584_906">
<rect width="145" height="52" fill="white"/>
</clipPath>
</defs>
</svg>
