<svg width="761" height="496" viewBox="0 0 761 496" fill="none" xmlns="http://www.w3.org/2000/svg">
<g clip-path="url(#clip0_428_192)">
<path fill-rule="evenodd" clip-rule="evenodd" d="M583.228 261.207L583.977 260.762L584.053 261.493L584.369 262.148L585.474 263.412L586.182 262.675L586.223 262.909L585.966 263.494L586.551 264.488L587.884 264.839L589.288 263.049L591.54 261.002L593.213 260.16L592.763 259.692L593.078 259.107L592.622 258.428L592.037 258.031L592.71 256.861L592.546 255.907L590.908 254.855L589.551 254.667L588.504 253.936H587.007L584.667 256.276L584.31 258.142L583.141 261.008L583.228 261.207ZM676.729 206.729L676.881 206.775L676.215 209.01L674.565 210.18L670.909 211.25L664.651 215.929L662.826 216.368L660.644 216.268L658.819 216.754L658.047 218.941L657.918 222.357L657.427 223.357L655.888 223.942L651.478 224.451L650.115 225.264L645.734 229.031L643.804 231.318L642.505 234.12L641.464 235.681L640.124 236.582L638.68 237.284L636.036 239.39L628.865 243.613L627.934 245.139L628.748 247.052L630.379 247.912L636.627 248.614L638.282 249.62L639.025 250.298L639.674 251.14L640.756 253.188L641.423 253.814L642.201 253.849L641.698 255.241L641.294 255.995L639.13 258.92L639.007 259.253L638.943 259.68L639.054 260.359V261.271L639.206 261.581L639.358 261.792L640.581 261.967L640.739 262.441L640.534 263.26L640.405 263.622L639.557 265.424L639.475 265.781V266.167L639.569 266.564L639.855 267.038L640.744 268.237L641.645 269.77L641.844 271.062L641.932 275.42L641.61 276.777L641.066 276.192L639.089 275.367L637.422 275.812L636.2 282L633.743 284.884L630.532 286.826L625.94 288.656L621.781 291.867L613.592 294.441L612.615 294.932L611.738 295.669L609.878 298.009L608.819 298.957L607.649 299.319L606.286 298.816L605.701 298.307L605.245 297.722L604.432 296.336L603.941 295.751L602.823 295.014L602.303 294.546L600.548 291.844L599.548 290.908L598.132 290.768L597.442 290.341L596.886 289.756L596.301 289.27L595.5 289.183L594.061 289.657L593.353 290.048L592.722 290.581L591.593 292.043L590.914 293.564L590.604 295.318L590.575 297.465L590.879 300.571L590.698 301.36L590.06 301.747L587.37 301.975L585.784 303.068V304.273L587.568 307.297L588.516 310.573L588.949 311.614L590.119 313.702L590.598 314.802L590.879 316.088L590.552 318.937L589.13 319.183L587.422 318.527L586.252 318.674L586.44 320.393L589.657 323.318V324.692L587.995 325.459L585.79 325.383L581.807 324.213L580.286 323.441L580.52 322.68L581.152 320.376L581.07 319.528L580.777 319.042L580.152 317.44L581.076 312.105L581.187 311.707L581.456 311.123L581.696 310.69L582.327 309.859L582.515 309.356L582.439 308.836L582.281 308.327L582.187 307.859L581.912 307.484L581.444 307.04L581.421 306.49L582.251 306.028L581.854 305.724L581.415 305.572L580.935 305.537L580.438 305.595L580.941 303.501L581.362 302.694L582.48 302.191V301.776L582.205 301.36L581.801 301.179L581.374 301.425L580.912 301.899L580.473 302.22L580.128 302.01V301.577L580.859 300.881L581.023 300.378L580.807 299.828L579.994 299.15L579.473 297.693L578.654 297.629L576.788 297.991L577.496 296.822L577.66 296.237L577.244 295.991L576.566 296.213L575.946 296.634L575.326 296.833L574.641 296.424L575.226 295.658L575.127 294.868L574.636 294.154L574.051 293.57L573.729 293.464L573.419 293.511H573.109L572.811 293.219L572.77 292.961L572.852 292.283L572.811 292.025L572.354 291.078L572.115 290.774L571.629 290.388L570.459 289.803L570.161 289.569L569.828 289.124L569.313 288.13L568.921 287.609L568.254 287.124L567.289 286.691L566.312 286.516L565.593 286.808L565.446 285.796L565.318 285.404H565.125L564.733 285.703L564.499 285.55L564.388 285.118L564.329 283.731L564.183 283.147L563.832 282.638L561.533 280.55L561.937 280.374L563.3 279.789L563.75 279.233L564.195 278.69L565.008 276.35L565.821 274.01L566.406 273.32L566.991 272.63L568.517 271.957L570.032 271.29L570.582 270.331L571.138 269.378L571.413 268.998L571.705 268.617L572.161 268.465L572.618 268.319L573.565 268.19L574.525 268.068L575.314 267.67L576.116 267.284L576.882 266.763L577.636 266.231L578.017 265.863L578.397 265.482L578.566 265.149L578.748 264.81L579.093 262.002L579.438 259.2V258.715V258.23L579.374 257.879L579.315 257.534L579.251 257.428L579.186 257.323L579.087 257.247L578.976 257.165L578.771 256.902L578.566 256.644L578.508 256.405L578.449 256.159L578.549 255.948L578.648 255.744L578.835 255.586L579.017 255.44L580.04 254.931L581.064 254.428L581.479 254.299L581.895 254.17L582.31 254.328L582.719 254.492L582.947 253.907L583.17 253.293L583.761 252.679L584.305 252.141L585.509 251.374L586.72 250.608L587.083 250.526L587.434 250.456L588.095 250.696L588.744 250.93L589.072 250.883L589.393 250.836L590.247 250.287L591.107 249.737L591.435 249.643L591.768 249.55L593.084 249.795L594.406 250.035L594.664 249.883L594.921 249.737V249.427V249.123L594.553 248.438L594.184 247.76L594.108 247.45L594.02 247.134L594.313 246.362L594.599 245.584L595.184 245.151L595.769 244.724L597.027 244.32L598.29 243.917L600.542 242.162L602.794 240.372L603.42 239.635L604.063 238.898L604.432 238.6L604.812 238.302L607.743 237.471L610.726 236.641L613.194 236.547L615.663 236.454L616.587 236.062L617.505 235.664L618.184 234.868L618.856 234.073L619.155 233.611L619.459 233.155L619.804 232.874L620.149 232.593L621.383 232.137L622.623 231.681L624.46 230.318L626.308 228.949L626.893 228.288L627.478 227.633L628.982 225.024L630.479 222.416L630.801 222.082L631.122 221.749L631.497 221.533L631.883 221.31L632.286 221.17L632.684 221.024L633.053 220.837L633.409 220.644L633.696 220.322L633.971 220.006L634.141 219.485L634.293 218.959L634.842 217.748L635.392 216.526L636.34 215.701L637.293 214.876L639.458 213.935L641.61 212.999L641.938 213.063L642.265 213.122L642.675 213.42L643.078 213.707L643.429 214.11L643.78 214.508L643.95 214.894L644.114 215.286L644.266 215.841L644.424 216.426L644.769 216.777L645.102 217.122L645.57 217.31L646.032 217.497L646.559 217.567L647.085 217.643L647.775 217.31L648.471 216.982L648.939 216.099L649.407 215.221L649.823 214.134L650.22 213.04L650.735 212.069L651.256 211.098L651.881 210.349L652.496 209.606L652.73 209.203L652.969 208.805L653.145 208.249L653.326 207.664L653.648 207.232L653.964 206.805H654.496H655.023L656.052 207.091L657.076 207.378L657.912 207.255L658.754 207.132L659.585 206.699L660.416 206.272L661.919 205.038L663.422 203.804L664.387 202.886L666.359 201.435L667.762 201.242L669.172 201.827L675.384 206.302L676.729 206.729Z" fill="#07367C" stroke="white" stroke-miterlimit="10"/>
<path fill-rule="evenodd" clip-rule="evenodd" d="M587.855 264.834L586.521 264.489L585.966 263.489L586.223 262.91L586.182 262.676L585.474 263.413L584.369 262.15L584.053 261.495L583.977 260.763L583.228 261.208L583.1 261.079L584.252 258.213L584.609 256.347L586.96 253.973L588.452 253.961L589.499 254.692L590.856 254.879L592.494 255.932L592.657 256.885L591.985 258.055L592.593 258.453L593.049 259.131L592.733 259.687L593.184 260.155L591.511 260.997L589.259 263.045L587.855 264.834Z" fill="#07367C" stroke="white" stroke-miterlimit="10"/>
<path d="M576.063 328.963L573.998 327.472L563.628 329.502L561.738 332.022L561.048 333.268L560.867 333.906L560.826 334.345V334.725L560.89 335.046L561.06 335.585L561.194 335.9V335.959L561.294 336.164L561.656 337.205L561.797 337.79L561.861 338.1L561.896 338.638L561.762 340.55L561.598 340.86H561.44L561.3 340.632L561.118 340.404L560.884 340.264L560.609 340.229L560.253 340.445L560.218 340.679L560.311 340.907L560.516 341.1L561.305 341.609L561.522 341.796L561.656 342.019L561.592 342.346L561.458 342.761L561.224 343.264V344.153L561.107 344.738L561.586 344.937L563.095 343.592L563.821 344.177L564.991 346.107L565.575 346.417L565.874 346.037L565.967 345.452V345.165V345.083L566.283 344.218L566.435 344.124L566.897 344.042L567.067 343.931L567.605 342.82V342.013L566.611 339.889L566.184 338.644L566.026 337.562L566.33 337.111L567.26 337.755L568.161 339.737L568.834 342.235L569.851 343.808L571.729 343.019L571.583 341.732L567.74 336.322L567.523 335.737L567.453 335.193L567.553 334.023L567.4 333.584L566.611 332.952L566.517 332.432L567.102 331.367L567.798 331.952L568.804 333.76L569.389 333.578L570.963 332.204L571.858 331.911L575.081 332.42L576.087 332.256L576.449 331.549L576.52 330.706L576.379 329.817L576.063 328.963ZM582.498 308.784L582.34 308.275L582.246 307.807L581.971 307.433L581.503 306.989L581.421 306.491L582.252 306.029L581.854 305.725L581.415 305.573L580.936 305.538L580.439 305.596L580.942 303.502L581.363 302.695L582.48 302.192V301.777L582.205 301.362L581.801 301.18L581.374 301.426L580.912 301.9L580.474 302.222L580.129 302.011V301.578L580.86 300.882L581.024 300.379L580.807 299.829L579.994 299.151L579.473 297.694L578.655 297.63L576.789 297.993L577.496 296.823L577.66 296.238L577.245 295.992L576.566 296.215L575.946 296.636L575.326 296.835L574.642 296.425L575.227 295.659L575.127 294.869L574.636 294.156L574.051 293.571L573.729 293.466L573.419 293.512H573.109L572.811 293.22L572.77 292.962L572.852 292.284L572.811 292.027L572.355 291.079L572.115 290.775L571.63 290.389L570.46 289.804L570.161 289.57L569.828 289.126L569.313 288.131L568.921 287.611L568.254 287.125L567.289 286.692L566.312 286.517L565.593 286.809L565.447 285.797L565.318 285.406H565.125L564.733 285.704L564.499 285.552L564.388 285.119L564.33 283.733L564.183 283.148L563.832 282.639L561.534 280.551L560.58 280.972L559.96 281.393L559.346 281.82L559.106 282.504L558.86 283.195L558.761 283.13L558.667 283.066L558.457 282.984L558.246 282.902L558.147 282.844L558.053 282.791V283.113V283.434L558.112 284.089L558.17 284.745V285.031L558.141 285.312L558.001 285.639L557.854 285.973L557.708 286.078L557.574 286.189L557.445 286.341L557.322 286.488L557.24 286.938L557.158 287.388L557.381 289.833L557.609 292.284L557.749 292.869L557.895 293.413L558.077 293.647L558.264 293.881L558.474 294.004L558.691 294.121L559.276 294.255L559.861 294.39V294.752V295.115L559.943 295.489L560.019 295.864L560.165 296.22L560.317 296.583L560.504 296.905L560.697 297.232L560.65 297.431L560.609 297.624L560.071 298.513L559.533 299.396L559.954 299.63L560.387 299.853L560.253 300.239L560.112 300.619L559.638 300.9L559.171 301.18L558.586 301.099L558.001 301.005L557.117 300.566L556.228 300.128L555.977 300.081L555.719 300.034L555.509 300.174L555.304 300.315L555.058 300.824L554.9 301.028L554.731 301.233L553.93 301.169L553.655 301.444L553.386 301.724L553.239 302.017L548.022 299.268L544.571 297.46L544.465 299.8L543.88 300.426L541.447 300.841L540.862 300.982L540.611 301.087L540.406 301.262L540.301 301.561L540.248 302.947L539.956 305.117L540.055 305.415L540.295 305.632L541.038 305.544L541.827 305.292L542.248 305.257L542.365 305.994L537.101 318.026L536.926 318.821L536.803 319.745L536.978 321.33L537.165 321.798L537.429 322.243L537.592 322.465L538.809 322.658L548.876 322.88L562.148 319.587H562.341L562.393 319.716L562.159 320.12L561.949 320.406L561.762 320.716L561.586 321.132L561.001 323.342L560.814 323.758L560.668 324.249L561.2 325.279L563.663 324.629L564.645 324.536L567.213 324.986L568.249 324.852L569.787 323.962L570.67 323.6L577.912 322.529L578.924 322.693L580.322 323.407L580.556 322.646L581.187 320.342L581.105 319.494L580.813 319.008L580.187 317.406L581.111 312.071L581.222 311.674L581.491 311.089L581.731 310.656L582.363 309.825L582.55 309.322L582.498 308.784Z" fill="#07367C" stroke="white" stroke-miterlimit="10"/>
<path fill-rule="evenodd" clip-rule="evenodd" d="M524.729 394.888L525.916 394.87L529.28 393.73H529.286V393.724H529.297L529.888 393.425L530.514 393.262L531.146 393.267L531.894 393.525L532.239 393.73L532.924 394.396L533.655 394.531L534.386 394.268L535.129 393.718L535.474 393.63L535.837 393.595L536.199 393.63L536.545 393.718H536.55L536.556 393.73H536.568L537.246 394.554L538.738 397.877L539.569 399.105L540.025 399.783L540.469 400.93L540.417 402.187L540.025 403.129L539.475 403.901L538.797 404.504L538.048 404.948L537.012 405.159L536.223 405.135L535.731 405.439L535.579 406.674L535.714 407.247L535.971 407.75L536.17 408.276L536.135 408.914L535.907 409.259L534.79 410.06L534.445 410.914L534.562 411.949L535.152 414.073L535.246 415.219L535.1 418.477L535.217 419.717L535.544 420.466L536.621 422.109L536.878 422.975L536.966 424.77L537.118 425.595L537.539 426.397L539.276 428.069L540.914 431.076L541.669 431.854L543.967 433.146L547.483 436.293L548.553 438.007L548.752 440.183L548.027 443.482L546.927 446.587L545.202 449.231L544.669 450.302V450.307V450.313L544.663 450.319L544.658 450.325L544.324 451.278L544.125 452.138L543.792 452.846L543.318 453.191L543.096 453.361L542.417 453.565L540.352 453.846L538.972 454.32L538.188 455.127L536.305 460.853L535 463.421L531.772 467.937L529.379 470.229L527.098 473.136L525.209 476.424L523.969 479.857L523.799 482.202L524.676 486.607L524.828 488.952L524.6 490.953L524.091 492.842L523.255 494.503L523.056 495.322L522.851 494.281L522.331 493.538L521.547 493.07L520.629 492.836L519.049 492.906L518.488 492.836L518.002 492.59L517.031 491.853L516.528 491.695L516.019 491.76L515.177 492.017L514.715 492.076L514.44 492.333L514.165 492.883L513.826 493.415L513.346 493.596L512.621 492.947L511.784 490.648L510.767 490.14L509.843 490.397L509.029 491.017L507.573 492.491L506.696 493.152L505.806 493.614L504.847 493.883L503.771 493.977L502.636 494.234L500.946 495.334L499.957 495.527L498.963 495.123L498.46 494.275L498.132 493.24L497.688 492.286L496.799 491.461L494.833 490.707L493.944 490.14L493.523 489.291L492.792 486.876L492.248 486.373L491.318 486.098L489.545 484.817L488.738 484.437L486.603 484.39L482.532 485.355L476.741 485.612L476.273 485.788L475.402 486.548L474.928 486.718L473.729 486.671L473.179 486.566L470.254 485.326L469.19 485.197L468.061 485.291L467.195 485.56L466.101 484.712L466.195 483.694L466.868 482.741L467.692 481.887L468.394 480.734L468.219 479.839L467.517 479.079L466.645 478.33L466.043 476.745L466.207 474.751L467.178 470.984L467.347 468.761L466.996 464.369L467.16 462.169L468.704 459.409L471.161 456.197L472.787 453.016L472.378 451.852L473.694 451.004L474.384 449.629L474.624 448.869L474.858 446.664L475.121 445.734L475.49 445.254L480.888 440.189L481.222 439.592L481.509 438.914L481.748 438.217L481.912 437.568L482.386 436.445L483.07 435.293L483.474 434.819L483.831 434.55L485.439 434.287L485.96 434.135L488.487 432.714L493.394 428.771L493.956 428.151L494.079 427.853L494.424 426.508L494.903 423.607L495.149 422.636L495.436 421.916L495.681 421.565L497.337 420.191L498.132 419.319L498.612 418.506L498.975 417.681L500.729 417.254L501.402 416.898L501.817 416.558L502.607 415.751L503.057 415.149L505.707 409.978L505.947 409.692L506.228 409.411L506.643 409.089L507.281 408.797L507.842 408.656L508.48 408.627L509.182 408.715L509.837 408.902L510.123 409.031L510.357 409.171L510.544 409.323L511.346 410.189L511.58 410.329L511.89 410.376L512.048 410.177L512.124 409.914L512.13 408.92L512.241 408.498L512.451 408.03L512.908 407.323L513.136 406.872L513.258 406.445V406.124L513.229 405.808L513.095 405.223L513.001 404.954L512.943 404.667L512.913 404.369V404.071L512.937 403.772L512.989 403.433L513.077 403.106L513.13 402.749L513.142 402.421L513.077 402.129L512.989 401.883L511.907 399.918L511.656 397.888L511.328 396.566L511.322 396.081L511.439 395.66L511.697 395.256L512.018 394.923L512.288 394.689L512.551 394.537L513.065 394.32L513.627 394.174L516.844 394.034L517.645 393.706L518.301 393.203L519.067 393.969L524.729 394.888Z" fill="#07367C" stroke="white" stroke-miterlimit="10"/>
<path fill-rule="evenodd" clip-rule="evenodd" d="M471.653 307.235L472.004 307.498L477.584 307.708L479.427 308.241L480.141 308.439L480.86 308.551L481.866 308.504L483.036 308.246L483.299 308.223L483.539 308.399L483.761 308.767L484.106 309.504L484.282 310.06L484.376 310.615L484.329 311.411L484.077 312.259L483.685 313.148L483.598 313.493L483.551 313.862L483.539 314.253L483.609 316.985L483.715 317.962L484.34 320.968L484.446 321.266L484.598 321.565L484.943 321.816L485.855 322.255L486.072 322.46L486.224 322.711L486.183 323.121L486.078 323.46L486.06 323.881L486.206 324.343L487.411 325.835L487.388 327.18L487.195 327.7L487.06 327.888L486.838 328.075L486.007 328.35L485.773 328.49L485.657 328.753L485.621 329.063L485.82 331.666L485.967 331.964L486.171 332.216L486.68 332.339L487.054 332.368L487.405 332.309L487.68 332.216L488.529 331.789L488.745 331.73L489.032 331.719L489.371 331.777L489.681 331.999L489.903 332.356L489.938 333.146L489.798 333.526L489.81 334L489.88 334.304L491.418 336.024L492.021 335.795L492.219 335.76L492.424 335.684L492.951 336.573L496.437 337.539L496.946 337.609L497.653 337.562L497.963 337.474L498.268 337.457L498.987 337.925L499.297 338.077L499.707 338.135L500.139 337.971L501.181 338.1L508.855 339.545L509.598 340.738L510.791 346.119L510.621 346.569L509.943 346.757L509.598 346.786L508.399 347.055L507.445 347.406L506.071 348.137L505.38 348.646L505.024 349.003L504.936 349.248L504.842 349.646L504.795 350.494L504.819 351.003L504.877 351.401L504.953 351.693L505.059 352.284L505.076 352.612L505.035 353.296L504.942 353.647L504.749 353.91L504.351 354.074L503.982 354.126L502.637 354.167L502.035 354.302L501.777 354.846L501.637 355.302L501.537 359.279L501.994 360.239L502.619 360.976L504.468 362.619L507.814 365.596L507.404 366.117L506.849 368.328L506.562 370.632L506.509 372.744L505.948 374.674L505.614 376.575L505.322 376.68L504.924 376.558L504.45 376.71L504.368 376.786L493.781 374.113L491.418 374.002L491.406 374.294L491.477 374.855L491.482 375.142L491.447 375.435L491.354 375.727L491.19 375.979L490.974 376.172L490.734 376.289L490.201 376.406L485.306 376.599L484.668 376.47L484.346 376.341L484.06 376.177L483.814 375.984L483.639 375.651L483.58 375.183L483.656 374.306L483.937 372.715L483.773 371.919L482.884 370.223L481.936 370.077L478.169 369.328L474.683 368.761L474.098 368.767L473.303 369.001L472.613 369.387L472.25 369.691L471.969 369.995L470.536 372.194L470.115 372.604L466.798 373.943L466.442 373.978L465.868 373.82L465.155 373.458L462.534 371.352L461.405 370.632L460.569 370.685L454.176 372.165L453.953 372.177L449.724 374.276L448.8 374.885L448.104 375.119L446.525 375.125L443.565 374.323L443.272 374.107L443.074 373.756L442.968 373.101L442.933 372.668L442.927 372.288L442.986 371.387L442.974 370.504L442.84 370.153L442.711 369.89L441.588 369.03L440.278 368.112L437.955 365.848L437.476 365.181L437.236 364.76V364.748L437.218 364.719L437.113 364.421L436.686 362.555L436.575 362.309L436.429 362.075L436.23 361.882L436.002 361.736L435.709 361.637L435.288 361.566L433.896 361.52L433.416 361.602L433.048 361.859L432.954 362.14L432.913 362.45L432.948 363.321L432.937 363.614L432.872 363.906L432.72 364.158L432.521 364.374L431.591 365.058L430.638 365.561L430.123 365.731L411.207 365.245L408.843 360.519L408.3 358.817L408.34 358.466L409.645 355.513L409.762 355.051L409.867 354.518L409.908 353.67L409.85 353.22L408.516 348.377L408.124 347.839L407.802 347.464L406.925 346.681L405.603 345.177L405.27 344.452L405.346 344.171L405.544 343.961L405.825 343.803L406.223 343.703L408.411 343.393L411.078 342.692L411.411 342.452L411.786 342.107L411.949 341.112L412.061 340.761L412.295 340.358L412.569 340.229L412.891 340.258L414.383 341.112L415.705 341.691L416.939 341.884L418.202 341.867L418.781 341.685L419.167 341.416L419.454 340.726L420.209 337.737L420.331 337.392L421.033 335.877L421.203 335.398L421.232 335.088L421.18 334.819L420.998 334.602L420.747 334.45L420.448 334.368L420.15 334.322L419.998 334.117L420.033 333.737L421.168 332.035L421.308 331.76L421.396 331.567L421.478 331.303L421.536 330.999L421.618 329.824L421.612 329.122L421.648 328.818L421.77 328.443L422.04 327.899L422.303 327.613L422.589 327.472L423.233 327.507L427.275 329.321L428.158 329.496L428.304 329.566L428.749 329.654L429.883 331.251L430.579 331.994L432.375 332.637L433.218 333.304L434.083 333.748L435.007 333.438L436.932 334.672L438.804 335.059L448.361 333.005L448.853 332.748L451.713 330.081L452.111 329.595L452.339 329.116L452.345 328.66L452.228 328.291L451.965 327.946L451.643 327.782L451.222 327.718L450.836 327.735L449.993 327.888L449.672 327.864L449.479 327.753L449.397 327.443L449.484 326.999L450.631 324.29L450.976 322.974L451.251 322.22L451.637 321.483L452.742 319.88L452.965 319.482L453.023 318.927L452.339 318.348L452.181 318.061L452.07 317.628L452.122 317.254L452.719 315.95L453.035 314.68L452.871 312.604L452.392 311.224L452.409 310.791L452.625 310.44L453.485 310.025L453.813 309.726L454.158 309.048L454.187 308.603L453.988 308.135L453.678 307.626L453.286 306.615L453.304 305.661L453.433 304.743L454 303.152L454.369 302.421L454.772 301.754L455.287 301.163L455.831 300.76L456.416 300.567L457.042 300.643L457.697 300.964L458.615 301.649L459.417 302.105L460.2 302.421L460.926 302.526L461.803 302.403L462.838 301.929L466.038 299.736L466.459 299.566L466.845 299.625L467.348 299.9L468.594 301.005L470.103 302.754L470.232 302.994L470.296 303.251L470.255 303.801L469.998 304.725L469.986 304.983L470.039 305.193L470.132 305.445L470.285 305.72L470.788 306.386L471.653 307.235Z" fill="#07367C" stroke="white" stroke-miterlimit="10"/>
<path fill-rule="evenodd" clip-rule="evenodd" d="M435.878 166.009L442.271 162.546L448.665 159.078L447.711 174.086L446.758 189.036L446.647 190.621L446.541 192.207L446.313 192.721L446.097 193.236L445.57 193.441L445.05 193.645L444.921 194.061L444.787 194.476L444.763 196.283L444.629 206.139L444.471 217.773L444.517 218.095L444.564 218.416L444.751 218.568L444.944 218.715L450.279 218.738L455.14 218.755L459.977 218.773L465.329 218.796L465.499 218.773L465.657 218.75L465.826 218.755L465.99 218.761L466.142 218.802L466.294 218.837L466.406 218.902L466.511 218.96L467.283 226.488L468.049 233.992L469.465 241.315L470.874 248.627L472.775 257.33L474.665 266.01L475.665 267.221L476.648 268.432L477.753 268.718L477.736 268.917L472.319 271.128L471.945 272.046L471.389 272.772L472.144 280.96L472.22 281.282L472.331 281.551L472.577 282.048L472.951 282.504L473.22 282.697L473.828 283.037L477.835 284.13L478.081 284.329L478.239 284.551L478.326 284.821L478.35 285.248L478.332 285.827L478.221 286.874V287.856L478.297 288.131L478.701 289.149L479.672 290.886L478.432 294.004L471.652 307.234L470.787 306.386L470.284 305.719L470.132 305.444L470.038 305.193L469.985 304.982L469.997 304.725L470.254 303.801L470.295 303.251L470.231 302.994L470.102 302.754L468.593 301.005L467.347 299.899L466.844 299.625L466.458 299.566L466.037 299.736L462.838 301.929L461.802 302.403L460.925 302.526L460.199 302.42L459.416 302.105L458.614 301.648L457.696 300.964L457.041 300.642L456.415 300.566L455.83 300.759L455.286 301.163L454.771 301.754L454.368 302.42L453.999 303.151L453.432 304.742L453.303 305.661L453.286 306.614L453.677 307.626L453.988 308.135L454.186 308.603L454.157 309.047L453.812 309.726L453.484 310.024L452.625 310.439L452.408 310.79L452.391 311.223L452.87 312.604L453.034 314.68L452.718 315.949L452.122 317.254L452.069 317.628L452.18 318.061L452.338 318.347L453.022 318.926L452.964 319.482L452.742 319.88L451.636 321.482L451.25 322.219L450.975 322.974L450.63 324.29L449.484 326.998L449.396 327.443L449.478 327.753L449.671 327.864L449.992 327.887L450.835 327.735L451.221 327.718L451.642 327.782L451.964 327.946L452.227 328.291L452.344 328.659L452.338 329.115L452.11 329.595L451.712 330.081L448.852 332.748L448.36 333.005L438.803 335.058L436.931 334.672L435.007 333.438L434.082 333.748L433.217 333.303L432.374 332.637L430.579 331.993L429.883 331.25L428.748 329.654L428.303 329.566L428.157 329.496L427.274 329.32L423.232 327.507L422.588 327.472L422.302 327.612L422.039 327.899L421.77 328.443L421.647 328.817L421.612 329.121L421.617 329.823L421.536 330.999L421.477 331.303L421.395 331.566L421.307 331.759L421.167 332.034L420.032 333.736L419.997 334.116L420.149 334.321L420.448 334.368L420.746 334.45L420.997 334.602L421.179 334.818L421.231 335.087L421.202 335.397L421.033 335.877L420.331 337.392L420.208 337.737L419.453 340.726L419.167 341.416L418.781 341.685L418.201 341.866L416.938 341.884L415.704 341.691L414.382 341.112L412.89 340.258L412.569 340.229L412.294 340.357L412.06 340.761L411.949 341.112L411.785 342.106L411.41 342.451L411.077 342.691L408.41 343.393L406.222 343.703L405.824 343.802L405.544 343.96L405.345 344.171L405.269 344.452L405.602 345.177L406.924 346.68L407.801 347.464L408.123 347.838L408.515 348.376L409.849 353.219L409.907 353.67L409.866 354.518L409.761 355.05L409.644 355.512L408.34 358.466L408.299 358.817L408.843 360.519L411.206 365.245L410.363 365.789L405.988 366.824L405.877 365.228L405.807 364.83L405.362 363.303L405.087 362.666L404.912 362.344L404.198 361.367L403.414 360.572L402.742 360.197L401.689 359.811L400.835 359.314L400.472 358.121L400.332 356.869L400.32 355.928L399.952 354.647L399.144 353.284L393.857 350.798L393.459 350.143L392.792 350.008L390.868 350.891L390.008 350.839L389.388 350.529L389.23 350.043L389.008 349.517L388.943 349.184L386.861 348.031L385.627 347.183L382.41 342.72L381.725 341.299L382.351 339.819L383.071 338.217L384.509 336.398L384.667 336.152L385.013 335.789L385.358 335.035L388.066 333.789L388.861 333.227L389.645 332.473L390.253 331.613L392.353 327.308L393.032 326.758L393.43 326.747L393.763 326.489L394.038 326.296L394.336 326.22L395.664 326.056L395.717 325.858L395.535 325.483L394.851 324.618L393.547 323.29L393.044 322.465L392.985 322.237L393.009 322.097L393.225 322.026L393.617 321.646L394.354 319.453L393.248 318.336L393.009 317.213L393.032 316.704L393.096 316.16L393.225 315.616L393.634 315.113L394.366 314.703L395.904 314.44L396.898 314.434L397.758 314.674L398.653 315.458L399.601 316.095L400.613 316.435L405.824 316.487L406.298 315.505L407.304 312.311L408.123 311.545L409.088 310.41L410.27 306.714L410.346 305.982L410.849 305.234L411.194 304.93L411.615 304.807L412.054 304.83L414.37 305.327L414.955 305.351L414.99 304.678L414.826 303.988L414.733 302.812L414.715 301.368L414.815 299.835L415.025 298.344L416.072 294.717L413.949 295.337L400.525 294.401L396.15 293.325L394.617 292.448L393.085 291.167L392.459 289.447L392.055 287.897L391.113 282.001L390.727 280.603L390.195 280.533L388.774 282.557L387.352 283.171L385.422 283.575L379.561 283.838L378.069 284.405L377.221 284.856L375.876 290.091L374.876 291.015L362.885 289.582L361.007 288.909L360.393 287.646L360.323 283.791L360.094 281.797L359.188 280.445L358.322 279.714L357.486 279.486L356.597 279.796L355.719 280.504L354.924 281.656L352.292 287.172L349.133 291.898L343.851 293.752L343.921 292.606L342.295 290.956L341.295 289.184L327.964 280.96L321.138 277.111L315.318 274.842L311.405 273.947L310.34 273.333L304.368 262.746L296.922 253.943L295.822 251.996L294.419 248.744L290.687 248.656L274.987 254.622L255.994 228.441L255.643 227.634L255.614 226.851L256.579 226.032L266.096 220.651L266.628 220.083L266.816 219.762L265.938 217.907L260.884 208.578L260.756 208.005V207.274L261.75 194.845L264.189 189.124L275.549 167.26L287.61 144.461L287.85 143.759L287.861 143.151L287.189 142.753L275.204 139.431L272.987 137.372L268.249 129.247L271.91 128.581L273.466 128.288L275.028 127.996L276.596 127.709L278.152 127.422L280.655 126.96L283.159 126.498L285.656 126.03L288.154 125.574L292.202 124.913L296.244 124.252L300.285 123.597L304.333 122.936L308.375 122.275L312.417 121.614L316.459 120.959L320.506 120.292L327.257 120.907L334.001 121.527L340.757 122.141L347.501 122.755L353.637 123.316L359.785 123.872L365.92 124.439L372.05 124.995L374.49 125.212L375.268 124.989L376.034 124.767L380.491 122.293L384.749 119.918L389.148 117.467L393.465 115.063L394.26 114.759L395.056 114.455L395.764 114.566L396.471 114.683L397.208 115.344L397.957 116.011L402.73 122.246L407.497 128.469L409.708 130.815L411.908 133.149L416.47 136.021L421.033 138.887L421.91 139.67L422.781 140.448L426.543 148.239L428.947 153.205L432.269 160.054L435.112 165.921L435.498 165.968L435.878 166.009Z" fill="#07367C" stroke="white" stroke-miterlimit="10"/>
<path fill-rule="evenodd" clip-rule="evenodd" d="M649.939 281.522L649.869 280.516L649.284 279.101L648.699 278.095L647.67 277.165L646.453 276.638L645.739 276.825L646.254 278.036L646.301 278.083L647.038 278.843L648.336 280.598L649.079 281.312L649.939 281.522ZM695.85 252.821L696.108 252.335L696.295 251.692L696.5 251.364L696.973 251.563L697.213 252.517L697.629 252.704L697.985 252.394L698.02 251.148L698.301 250.896L698.675 251.049L699.027 251.376L703.185 257.605L703.893 259.36L704.15 261.302L704.039 263.817L704.273 266.297L705.443 266.882L708.953 266.297L710.023 267.192L710.702 268.157L711.468 268.566L712.79 267.765L713.749 266.905L714.779 266.227L715.861 266.057L716.99 266.724L717.499 267.859L717.709 269.461L717.785 271.14L718.195 274.211V275.381L717.891 276.433L717.306 277.831L718.651 277.422L718.394 278.375L717.335 283.253L717.001 283.569L716.802 283.686L716.533 283.803L715.867 283.926L713.205 284.037L712.48 284.178L711.702 284.09L705.899 282.68L704.683 282.797L703.612 282.721H702.647L702.132 282.873L700.284 283.756L698.81 283.019L694.23 284.248L693.645 285.108L693.089 285.511L691.645 286.851L691.457 287.184L691.498 287.588L692.031 288.289L692.733 289.758L691.452 291.021L687.79 292.243L683.859 294.39L682.994 295.121L681.596 297.268L678.671 300.011L677.659 300.21L677.021 300.011L675.015 298.911L674.114 298.174L673.617 297.993L672.81 297.835L672.348 297.683L672.026 297.496L670.768 296.18L670.435 296.022L668.68 295.823L668.435 295.577L671.254 291.717L666.241 291.992L664.826 291.793L664.539 291.542L664.182 291.29L663.486 290.998H662.591L660.509 292.875L659.924 292.957L658.696 292.828L658.111 292.875L657.362 293.232L656.871 293.77L656.467 294.355L655.987 294.887L654.853 295.607L654.946 295.121L655.332 293.15L653.636 292.167L649.588 291.22L648.892 290.325L648.787 289.313L649.202 288.57L650.085 288.477L651.624 289.822L652.495 290.149L652.583 289.067L652.22 288.553L644.137 279.393L642.739 278.159L642.598 277.989L642.487 277.79L641.639 276.86L641.961 275.503L641.873 271.146L641.674 269.853L640.773 268.321L639.884 267.122L639.598 266.648L639.504 266.25V265.864L639.586 265.507L640.434 263.706L640.563 263.343L640.767 262.524L640.609 262.051L639.387 261.875L639.235 261.665L639.083 261.355V260.442L638.972 259.764L639.036 259.337L639.159 259.003L641.323 256.079L641.727 255.324L642.23 253.932H642.516L644.031 253.347L649.454 250.218L650.957 249.99L651.799 250.51L652.542 251.516L655.028 255.827L655.449 257.032L655.537 258.278L654.882 261.893L654.958 262.922L655.508 263.729L656.221 263.618L657.081 263.203L658.081 263.103L658.93 263.46L659.725 264.045L660.456 264.794L661.041 265.642L661.854 266.414L662.737 266.508L664.638 266.215L666.744 266.601L667.733 267.057L668.645 267.783L669.452 268.239L671.102 268.461L671.816 269.046L672.933 270.935L673.629 271.409L674.068 270.274L673.974 269.04L673.757 267.987L673.88 267.174L674.793 266.671L675.846 266.759L676.349 267.467L676.899 269.684L677.32 270.508L677.905 271.093L678.49 271.052L678.963 269.923L680.069 268.496L683.099 271.117L684.093 270.257L684.333 268.216L683.941 258.044L684.216 257.295L684.801 257.447L686.936 259.459L688.849 260.29L690.364 259.992L691.586 258.705L693.06 255.506L693.686 253.523L693.879 252.353L693.715 251.271L692.469 249.656L692.025 248.674L692.902 246.404L693.44 245.749L694.417 245.352L695.388 245.504L695.973 246.293L696.207 247.463V248.697L695.388 252.019L695.429 252.733L695.85 252.821Z" fill="#07367C" stroke="white" stroke-miterlimit="10"/>
<path fill-rule="evenodd" clip-rule="evenodd" d="M236.616 260.88L237.745 260.769L238.523 260.178L240.284 256.78L240.992 255.926L241.67 255.382L242.472 254.978L243.343 254.779L245.747 254.785L254.211 256.832L256.352 257.751L258.352 258.973L260.961 260.979L268.501 269.332L273.795 277.784L273.976 277.971L274.602 278.322L275.269 278.544L277.608 277.778L284.838 285.931L286.271 288.166L286.809 290.119L284.522 295.126L275.286 306.625L275.28 306.631L275.204 306.491L274.847 305.163L274.59 304.625L272.941 302.414L272.344 301.18L271.431 297.594L270.928 296.781L269.466 295.179L268.981 294.407L268.63 293.161L268.121 290.494L266.723 285.58L266.231 284.422L266.565 283.984L266.348 283.118L266.231 278.983L266.079 277.784L265.705 276.813L262.453 271.326L261.587 270.373L251.684 263.05L247.83 261.377L243.524 260.236L241.887 260.049L240.892 260.541L240.296 261.781L239.863 263.851L238.781 264.477L237.938 266.325L236.692 267.7L235.166 268.472L233.475 268.53L231.674 267.799L227.117 264.541L226.327 264.518L223.707 264.968L223.461 264.43L223.321 263.904L223.151 263.769L222.894 264.22L222.309 265.226L222.017 265.547L221.724 265.793L219.612 263.594L216.512 262.839L207.586 263.383L202.24 265.179L199.579 265.249L198.04 264.805L196.765 263.886L194.361 261.465L191.688 259.488L187.43 257.289L182.581 254.785L181.335 253.551L181.025 252.153L181.58 247.409L181.925 246.398L182.505 245.567L183.259 244.9L185.09 243.976L185.698 243.233L185.3 242.145L182.352 237.946L180.984 235.308L180.58 233.237L181.721 231.599L182.937 230.757L184.329 230.634L185.991 231.161L187.523 232.138L188.389 232.524L189.085 232.43L189.594 231.658L189.512 230.816L189.085 229.997L188.541 229.307L187.921 228.774L185.827 227.529L185.16 226.838L184.657 226.06L185.178 225.481L185.704 224.154L185.616 223.493L185.102 222.481L185.014 222.212L184.944 221.949L185.072 221.674L185.377 221.434L186.067 221.293L187.272 221.247L188.184 220.866L190.448 219.27L191.29 218.521L191.553 218.369L192.273 218.24L193.22 218.977L193.688 219.229L195.917 219.802L198.105 220.042L198.736 220.562L198.888 221.791L198.859 224.475L199.216 225.417L200.415 227.265L200.901 228.78L202.141 231.026L202.766 231.822L203.533 232.331L204.463 232.565L206.586 232.635L207.282 233.032L207.785 234.009L208.54 236.314L209.68 238.361L211.113 239.999L221.607 249.509L222.736 249.749L223.292 249.983L223.806 250.322L225.397 252.124L226.766 253.364L227.766 253.767L230.328 254.265L231.165 254.756L233.516 257.382L234.078 258.236L234.604 259.956L235.283 260.295L235.564 260.465L236.616 260.88Z" fill="#07367C" stroke="white" stroke-miterlimit="10"/>
<path fill-rule="evenodd" clip-rule="evenodd" d="M446.524 375.124L448.103 375.119L448.799 374.885L449.723 374.276L453.952 372.176L454.175 372.165L460.568 370.685L461.404 370.632L462.533 371.352L465.154 373.457L465.867 373.82L466.441 373.978L466.797 373.943L470.114 372.604L470.535 372.194L471.968 369.995L472.249 369.691L472.612 369.387L473.302 369L474.097 368.766L474.682 368.761L478.169 369.328L481.935 370.077L482.883 370.223L483.772 371.919L483.936 372.715L483.655 374.306L483.579 375.183L483.638 375.651L483.813 375.984L484.059 376.177L484.345 376.341L484.667 376.47L485.305 376.598L490.201 376.405L490.733 376.288L490.973 376.171L491.189 375.978L491.353 375.727L491.446 375.434L491.482 375.142L491.476 374.855L491.405 374.294L491.417 374.001L493.78 374.113L504.368 376.786L504.034 377.084L503.824 377.341L503.73 377.739L503.654 378.552L503.981 380.816L503.987 380.827L505.227 381.991L510.58 383.904L514.183 384.038L515.932 384.746L516.125 384.968L516.481 385.606L516.727 385.869L517.025 385.928L517.762 385.764L518.049 385.857L518.447 386.542L518.453 386.553L518.535 387.331L518.032 391.759L518.254 393.151V393.163L518.301 393.204L517.645 393.707L516.844 394.034L513.627 394.175L513.065 394.321L512.551 394.537L512.287 394.69L512.018 394.923L511.697 395.257L511.439 395.66L511.322 396.082L511.328 396.567L511.656 397.889L511.907 399.919L512.989 401.884L513.077 402.13L513.142 402.422L513.13 402.75L513.077 403.106L512.989 403.434L512.937 403.773L512.913 404.071V404.37L512.943 404.668L513.001 404.955L513.095 405.224L513.229 405.809L513.258 406.124V406.446L513.136 406.873L512.908 407.324L512.451 408.031L512.241 408.499L512.13 408.92L512.124 409.915L512.048 410.178L511.89 410.377L511.58 410.33L511.346 410.19L510.544 409.324L510.357 409.172L510.123 409.031L509.837 408.903L509.182 408.716L508.48 408.628L507.842 408.657L507.28 408.797L506.643 409.09L506.228 409.412L505.947 409.692L505.707 409.979L503.057 415.15L502.607 415.752L501.817 416.559L501.402 416.898L500.729 417.255L498.974 417.682L498.612 418.507L498.132 419.32L497.337 420.191L495.681 421.566L495.436 421.917L495.149 422.636L494.903 423.607L494.424 426.508L494.079 427.854L493.956 428.152L493.394 428.772L488.487 432.714L485.96 434.136L485.439 434.288L483.831 434.551L483.474 434.82L483.07 435.294L482.386 436.446L481.912 437.569L481.748 438.218L481.508 438.914L481.222 439.593L480.888 440.189L475.49 445.255L475.121 445.734L474.858 446.664L474.624 448.869L474.384 449.63L473.694 451.004L472.378 451.852L471.84 450.326L471.834 450.32L471.822 450.314L470.336 449.25L468.728 448.466L467.037 448.004L463.645 447.98L462.27 447.571L457.778 445.454L455.719 442.845L454.42 441.605L452.97 440.932L450.098 440.113L447.354 437.897L446.108 437.241L443.184 436.768L438.721 434.604L437.223 434.469L435.96 434.984L433.813 436.715L432.673 437.364L429.637 437.61L426.648 436.61L419.36 431.667L414.955 428.684L408.977 424.625L404.795 420.8L398.899 415.419L395.921 413.541L389.405 411.231L383.714 407.932L374.384 400.041L371.869 396.772L371.875 396.766L372.559 396.047L376.607 391.613L378.678 390.18L384.779 387.723L387.153 386.858L394.523 384.179L394.775 384.033L394.98 383.799L395.085 383.319L395.05 382.986L394.927 382.705L394.775 382.477L393.359 380.728L393.055 380.277L392.839 379.786L392.769 379.523L392.722 379.248V378.95L392.769 378.64L393.038 378.154L393.465 377.569L396.84 373.884L397.103 373.674L397.431 373.522L397.975 373.457L398.378 373.487L398.905 373.294L399.46 372.861L403.9 368.41L405.988 366.825L410.363 365.789L411.206 365.245L430.122 365.731L430.637 365.561L431.591 365.058L432.521 364.374L432.719 364.157L432.872 363.906L432.936 363.613L432.948 363.321L432.912 362.45L432.953 362.14L433.047 361.859L433.415 361.601L433.895 361.52L435.287 361.566L435.708 361.637L436.001 361.736L436.229 361.882L436.428 362.075L436.574 362.309L436.685 362.555L437.112 364.421L437.218 364.719L437.235 364.748V364.76L437.475 365.181L437.955 365.848L440.277 368.111L441.587 369.03L442.71 369.89L442.839 370.153L442.973 370.504L442.985 371.387L442.926 372.288L442.932 372.668L442.967 373.101L443.073 373.756L443.272 374.107L443.564 374.323L446.524 375.124Z" fill="#07367C" stroke="white" stroke-miterlimit="10"/>
<path fill-rule="evenodd" clip-rule="evenodd" d="M136.546 14.9621L139.436 16.9157L147.058 22.0629L155.34 27.6429L164.038 33.492L172.935 39.4638L181.802 45.4123L190.401 51.1678L198.514 56.5899L205.919 61.5265L212.371 65.8314L217.659 69.3525L221.548 71.9378L224.309 73.7744L225.45 75.067L226.251 76.7106L226.538 78.2138L226.824 81.4133L227.257 82.858L229.86 87.0576L234.943 92.5674L237.371 95.1936L239.798 97.8257L242.904 101.411L245.443 104.359L247.993 107.307L250.538 110.249L253.088 113.191L255.574 116.063L258.06 118.941L260.552 121.807L263.038 124.673L266.366 128.492L267.261 128.878L268.156 129.264L268.249 129.247L272.987 137.371L275.204 139.43L287.189 142.752L287.862 143.15L287.85 143.758L287.61 144.46L275.549 167.26L264.19 189.124L261.751 194.844L260.756 207.273V208.004L260.885 208.578L265.939 217.907L266.816 219.761L266.629 220.083L266.097 220.65L256.58 226.031L255.615 226.85L255.644 227.634L255.995 228.441L274.988 254.621L287.575 272.157L287.61 272.964L277.608 277.778L275.268 278.544L274.602 278.322L273.976 277.971L273.794 277.784L268.501 269.332L260.961 260.979L258.352 258.973L256.352 257.751L254.211 256.832L245.747 254.785L243.343 254.779L242.471 254.978L241.67 255.382L240.991 255.926L240.284 256.78L238.523 260.178L237.745 260.769L236.616 260.88L235.563 260.465L235.283 260.295L234.604 259.956L234.078 258.236L233.516 257.382L231.165 254.756L230.328 254.265L227.766 253.767L226.766 253.364L225.397 252.124L223.806 250.322L223.291 249.983L222.736 249.749L221.607 249.509L211.113 239.999L209.68 238.361L208.54 236.314L207.785 234.009L207.282 233.033L206.586 232.635L204.463 232.565L203.533 232.331L202.766 231.822L202.14 231.026L200.9 228.78L200.415 227.265L199.216 225.417L198.859 224.475L198.888 221.791L198.736 220.562L198.104 220.042L195.917 219.802L193.688 219.229L193.22 218.977L192.273 218.24L191.553 218.369L191.29 218.521L190.448 219.27L188.184 220.866L187.271 221.247L186.067 221.293L185.376 221.434L185.072 221.674L184.943 221.949L185.014 222.212L185.101 222.481L185.616 223.493L185.704 224.154L185.177 225.481L184.657 226.06L183.639 224.499L182.335 223.376L177.679 221.609L175.38 221.691L174.748 221.405L174.257 220.562L174.327 219.779L174.824 219.188L175.608 218.96L175.626 218.966H175.637H175.649L178.281 217.942L178.141 215.585L177.269 212.654L177.679 209.882L178.404 209.35L179.316 208.975L180.042 208.443L180.194 207.443L179.65 206.659L178.626 206.045L176.661 205.273L175.111 203.863L173.877 201.933L172.484 200.395L170.472 200.173L168.495 200.412L164.652 200.061L155.288 201.506L153 201.442L151.889 201.015L150.123 199.102L149.081 198.745L146.824 198.494L145.554 197.804L144.969 196.733L144.443 192.153L144.022 191.001L143.396 189.989L140.577 187.041L139.512 186.369L138.377 186.492L137.096 187.117L135.815 187.468L134.517 187.544L132.545 187.188L129.428 185.778L126.462 183.017L116.934 171.74L115.852 171.12L115.033 172.483L114.43 177.607L113.488 179.356L111.658 179.906L109.382 179.759L107.113 179.227L102.334 177.285L101.252 177.25L100.421 177.513L98.0755 178.952L96.4026 179.689L95.5954 180.303L95.1859 181.181L95.4375 182.339L96.2681 183.087L101.813 185.708L103.375 186.93L104.738 189.03L105.919 191.832L109.207 197.189L110.991 199.313L111.5 199.781L111.699 200.307L111.541 200.793L110.991 201.126L108.148 201.565L107.423 201.377L106.902 200.57L106.914 199.64L107.154 198.611L107.306 197.517L106.849 195.388L105.709 193.85L104.211 192.744L99.8069 190.656L98.8359 190.486L98.0346 190.621L96.4318 191.311L95.7124 191.381L95.0046 190.966L93.9927 189.451L93.3493 188.814L92.507 188.515L91.5067 188.486L90.5182 188.667L89.711 189.048L89.2372 189.65L88.8511 190.346L87.7164 191.65L86.5173 192.189L85.7627 192.832L86.0142 194.417L86.9618 196.464L87.0437 197.4L86.6577 198.798L84.8502 202.951L84.2127 203.664L82.5222 204.214L82.1595 204.998L82.4813 205.934L83.0486 206.577L83.189 207.145L82.2122 207.858L81.3582 208.045L78.3341 207.905L77.4743 208.11L75.0293 209.315L72.9644 209.73L66.6998 208.636L62.4474 208.806L58.2827 210.853L54.7205 214.362L52.2872 218.942V218.96L50.6318 221.428L48.8068 222.814L44.5544 224.82L43.3026 226.546L43.2909 228.839L44.2736 233.53L44.1625 235.764L43.8115 237.677L43.7647 239.543L44.5544 241.66L45.5371 243.286L46.046 244.836L46.2097 246.544L46.1805 248.632L46.3852 250.27L46.976 251.907L47.83 253.364L48.801 254.463L49.4269 254.92L50.1054 255.253L52.3223 255.797L52.6615 256.06L52.5679 256.464L52.0707 257.055L51.1231 257.733L49.0583 258.768L48.1868 259.78L46.8239 262.272L45.9641 262.775L40.5476 261.64L36.3654 260.757L26.4683 260.219L24.8598 260.131L15.6939 259.628L7.44641 259.178L0.26347 258.786L0.251772 245.228L0.240073 231.623V217.965L0.228375 204.261L0.222525 190.51L0.216676 176.706L0.210827 162.85L0.199128 148.941V134.985L0.187429 120.97L0.18158 106.903L0.175731 92.7838L0.169882 78.6057L0.158183 64.375V50.0857L0.146484 35.7438V35.738V35.7321V35.7263V35.7204V35.7146V35.7087V35.7029V35.697V35.6912V35.6853V35.6795V35.6737V35.6678H0.152334L0.158183 35.662V35.6561V35.6503V35.6444V35.6386V35.6327V35.6269H0.164032L0.169882 35.621L0.175731 35.6152V35.6093H0.18158V35.6035H0.187429V35.5976H0.193279L0.199128 35.5918V35.5859H0.204977L0.210827 35.5801H0.216676V35.5742H0.222525H0.228375V35.5684H0.234224H0.240073V35.5625H0.245922H0.251772L0.257621 35.5567H0.26347L4.41063 34.2231L8.56363 32.8895L12.7108 31.5559L16.8696 30.2165L21.0226 28.877L25.1756 27.5435L29.3228 26.204L32.5633 25.1629L33.4758 24.8704L37.6347 23.531L41.7818 22.1974L45.9348 20.858L50.0878 19.5127L54.2408 18.1791L58.3938 16.8338L62.5468 15.4944L66.6998 14.155L72.2333 12.4529L77.7726 10.745L83.3119 9.0429L88.8511 7.34082L91.4073 6.5746L93.9693 5.81422L96.5254 5.04799L99.0933 4.28177L101.761 3.50969L104.428 2.73177L107.095 1.95384L109.762 1.18177L113.354 0.146484L114.389 0.245918L115.6 0.784032L118.998 3.08856L119.969 3.7495L122.724 5.61535L127.041 8.53403L132.686 12.3535L136.546 14.9621Z" fill="#07367C" stroke="white" stroke-miterlimit="10"/>
<path fill-rule="evenodd" clip-rule="evenodd" d="M534.299 275.21L534.562 274.988L534.831 274.766L535.112 274.631L535.393 274.502L535.662 274.538L535.937 274.584L536.177 274.9L536.41 275.21L536.721 274.549L537.025 273.894L537.498 273.847L537.972 273.795L538.06 274.421L538.142 275.046L538.148 275.111L538.154 275.175L538.095 275.444L538.042 275.719L538.253 275.789L538.464 275.859L538.534 275.918L538.592 275.976L538.083 276.351L537.569 276.731L537.382 276.825L537.194 276.918L537.37 277.018L537.551 277.111L537.662 277.252L537.768 277.392L537.949 277.737L538.13 278.076L538.124 278.918L538.118 279.749L537.902 280.738L537.68 281.726L537.352 282.685L537.025 283.645L536.685 284.405L536.34 285.165L536.101 285.551L535.855 285.932L535.527 286.306L535.2 286.674L534.837 286.961L534.469 287.259L533.691 287.616L532.913 287.961L532.714 288.142L532.509 288.324L532.445 288.558L532.375 288.786L532.521 288.891L532.661 288.996L533.544 289.184L534.416 289.377L535.089 289.757L535.767 290.137L537.791 292.155L539.815 294.167L541.295 295.343L542.792 296.518L544.582 297.46L544.477 299.817L543.886 300.443L541.453 300.858L540.874 300.999L540.622 301.104L540.417 301.279L540.312 301.578L540.259 302.964L539.967 305.128L540.066 305.432L540.306 305.649L541.049 305.561L541.839 305.309L542.254 305.274L542.377 306.011L537.142 318.043L536.966 318.838L536.838 319.757L537.019 321.348L537.206 321.815L537.469 322.26L537.633 322.482L538.85 322.681L548.916 322.898L562.188 319.605L562.381 319.61L562.434 319.739L562.2 320.143L561.99 320.435L561.802 320.739L561.627 321.155L561.019 323.365L560.831 323.781L560.685 324.272L561.217 325.301L561.229 325.313L561.247 325.331L559.439 325.81L558.515 326.465L559.661 327.729L561.644 328.981L563.206 329.589L563.633 329.501L561.738 332.022L561.048 333.268L560.866 333.905L560.82 334.344L560.837 334.724L560.896 335.046L561.071 335.584L561.206 335.9L561.235 335.958L561.329 336.163L561.697 337.204L561.837 337.76L561.902 338.076L561.937 338.608L561.802 340.521L561.639 340.831L561.481 340.854L561.34 340.626L561.159 340.398L560.925 340.258L560.65 340.222L560.293 340.439L560.258 340.673L560.352 340.901L560.556 341.094L561.346 341.603L561.563 341.79L561.697 342.012L561.633 342.34L561.498 342.755L561.264 343.258L561.253 344.147L561.136 344.738L561.024 344.697L560.51 344.656L560.053 345.896L559.609 355.184L559.369 356.565L558.778 357.699L557.714 358.828L555.818 360.033L555.222 360.893L555.374 361.25L555.69 361.975L555.696 361.993L554.818 362.396L552.098 363.122L549.899 363.332L547.729 363.174L544.108 361.87L537.481 361.665L522.343 357.735L520.266 357.688L518.617 358.22L514.499 361.18L510.954 361.735L510.077 362.595L510.387 365.139L510.235 365.344L510.054 365.514L509.843 365.619L509.627 365.672L508.486 365.514L507.813 365.596L504.467 362.618L502.619 360.975L501.993 360.238L501.537 359.279L501.636 355.301L501.777 354.845L502.034 354.301L502.637 354.167L503.982 354.126L504.35 354.073L504.748 353.909L504.941 353.646L505.035 353.295L505.076 352.611L505.058 352.283L504.953 351.692L504.877 351.4L504.818 351.002L504.795 350.493L504.842 349.645L504.935 349.248L505.023 349.002L505.38 348.645L506.07 348.136L507.445 347.405L508.398 347.054L509.597 346.785L509.942 346.756L510.621 346.569L510.791 346.118L509.597 340.737L508.854 339.544L501.18 338.099L500.139 337.971L499.706 338.134L499.297 338.076L498.987 337.924L498.267 337.456L497.963 337.473L497.653 337.561L496.945 337.608L496.436 337.538L492.95 336.573L492.424 335.684L492.219 335.76L492.02 335.795L491.418 336.023L489.879 334.303L489.809 333.999L489.797 333.525L489.938 333.145L489.903 332.355L489.68 331.999L489.37 331.776L489.031 331.718L488.745 331.73L488.528 331.788L487.68 332.215L487.405 332.309L487.054 332.367L486.68 332.338L486.171 332.215L485.966 331.964L485.82 331.665L485.621 329.062L485.656 328.752L485.773 328.489L486.007 328.349L486.838 328.074L487.06 327.887L487.194 327.7L487.387 327.179L487.411 325.834L486.206 324.342L486.06 323.88L486.077 323.459L486.183 323.12L486.223 322.71L486.071 322.459L485.855 322.254L484.942 321.815L484.597 321.564L484.445 321.266L484.34 320.967L483.714 317.961L483.609 316.984L483.539 314.253L483.55 313.861L483.597 313.492L483.685 313.147L484.077 312.258L484.328 311.41L484.375 310.615L484.282 310.059L484.106 309.503L483.761 308.766L483.539 308.398L483.299 308.222L483.036 308.246L481.866 308.503L480.86 308.55L480.14 308.439L479.427 308.24L477.584 307.708L472.004 307.497L471.653 307.234L478.432 294.003L479.672 290.886L478.701 289.149L478.298 288.131L478.222 287.856V286.873L478.333 285.826L478.35 285.247L478.327 284.82L478.239 284.551L478.081 284.329L477.836 284.13L473.829 283.036L473.22 282.697L472.951 282.504L472.577 282.048L472.331 281.551L472.22 281.282L472.144 280.96L471.39 272.771L471.945 272.046L472.32 271.128L477.736 268.917L477.754 268.718L478.473 268.905L480.298 269.379L485.44 269.069L489.762 268.811L496.22 268.425L500.958 268.139L506.608 267.805L510.206 267.583L515.95 267.232L521.618 266.899L522.127 267.039L522.63 267.179L523.56 267.671L524.49 268.156L524.975 268.332L525.461 268.495L525.888 268.437L526.315 268.373L527.596 267.525L528.877 266.671L529.438 266.302L530 265.939L530.275 266.776L530.538 267.612L530.596 267.653L530.643 267.694L530.801 268.022L530.953 268.349L531.93 269.636L532.913 270.923L533.135 271.443L533.357 271.97L533.533 273.105L533.708 274.245L534.001 274.725L534.299 275.21Z" fill="#07367C" stroke="white" stroke-miterlimit="10"/>
<path d="M675.595 332.624L674.46 332.928L674.226 333.062L673.74 333.46L673.518 333.536L673.185 333.489L673.009 333.384L672.857 333.255L670.377 332.214L669.172 331.419L668.4 330.471L667.815 328.892L667.078 327.477L666.072 326.845L664.68 327.611L663.92 329.418L663.656 330.436L663.609 331.395L663.855 332.331L664.949 334.741L665.452 335.466L666.037 335.776L667.207 336.034L667.716 336.437L667.92 338.128L666.025 341.117L666.101 342.579L666.686 342.865L667.312 342.479L667.897 341.894L668.394 341.538L669.237 341.579L669.447 342.076L669.558 342.707L670.073 343.193L670.728 343.251L672.828 342.667L674.314 342.637L674.899 342.403L675.372 341.701L675.454 339.947L673.507 337.847L673.401 336.35L674.127 335.642L676.174 334.203L676.472 333.302L676.133 332.758L675.595 332.624ZM720.049 309.28L719.991 309.017L719.605 307.677L719.505 306.87L719.628 305.829L719.786 304.741L719.821 304.045V303.723L719.775 303.431L719.154 302.846L716.856 302.156L716.347 302.103L716.031 301.84L715.165 300.571L714.539 300.12L714.101 300.512L713.615 301.097L712.866 301.173L710.193 300.588L708.123 299.892L706.859 299.974L705.97 300.132L704.923 299.963L704.508 299.828L704.151 299.635L702.396 297.196L701.998 296.512L701.624 296.085L701.139 295.798L698.799 295.003L698.085 294.95L697.594 295.02L697.378 295.184L696.933 295.131L696.348 294.921L695.178 294.307H694.71L694.441 294.482L694.371 295.511L694.184 295.4L693.728 294.792L692.757 292.92L691.435 290.926L687.773 292.148L683.842 294.295L682.977 295.026L681.579 297.173L678.654 299.916L677.642 300.115L677.004 299.916L674.998 298.816L674.097 298.079L673.6 297.898L672.793 297.74L672.331 297.588L672.009 297.401L670.751 296.085L670.418 295.927L668.663 295.728L668.418 295.482L671.237 291.622L666.224 291.897L664.809 291.698L664.522 291.446L664.165 291.195L663.469 290.902H662.574L660.492 292.78L659.907 292.862L658.678 292.733L658.094 292.78L657.345 293.137L656.853 293.675L656.45 294.26L655.97 294.792L654.836 295.511L654.145 295.95L653.993 296.19L653.917 296.465L653.765 296.693L653.04 296.857L652.665 297.044L652.034 297.541L651.367 298.126L648.676 300.343L647.12 302.279L646.535 302.764L645.863 303.08L645.213 303.261L644.593 303.542L644.008 304.127L642.944 305.946L642.499 306.531L642.072 306.706L639.025 307.42L637.709 308.274L637.007 309.403L637.077 310.631L637.147 310.906L637.223 311.058L637.808 311.918L637.902 312.006L638.282 312.468L638.405 312.713L637.82 314.737L640.025 315.72L640.955 315.989L641.926 315.901L642.757 315.644L643.605 315.556L644.582 315.966L645.752 317.902L646.336 320.586L647.126 323.049L648.916 324.336L650.782 324.458L652.683 324.3L658.994 322.353L662.919 321.996L663.838 322.084L665.434 320.446L668.008 320.001L673.156 320.744L674.554 320.604L675.179 319.627L675.571 318.34L676.262 317.282L676.899 317.089L677.344 317.451L677.736 318.036L678.198 318.574L678.783 318.843L679.514 318.908L680.9 318.761L681.795 318.826L683.187 320.136L685.176 320.756L685.597 321.452L685.954 322.306L686.755 323.084L687.703 323.669L688.715 324.061L690.797 324.482L691.891 324.371L692.277 323.704L692.382 322.698L692.651 321.592L693.459 320.867L694.236 321.551L694.868 322.862L695.178 324.031V326.412L695.453 327.295L696.348 327.687L696.933 327.506L699.273 326.125L699.986 325.441L700.466 324.651L701.297 322.809L702.671 321.423L704.286 321.329L706.04 321.756L707.795 321.902L708.31 321.739L708.567 321.698L708.912 321.78L709.445 321.996L710.147 322.113L710.767 321.955L711.053 321.323L710.808 320.867L710.521 320.674L710.193 320.458L708.912 319.873L708.082 319.288L707.766 318.422L708.012 317.603L711.843 315.65L713.013 314.48L713.656 312.854L713.925 311.766L714.329 311.181L717.253 309.549L718.002 309.35L720.02 309.245L720.049 309.28ZM699.36 336.905L697.74 338.122L696.974 338.502L695.863 338.56L695.143 339.42L695.582 340.251L696.529 340.941L697.389 341.35L698.524 341.696L699.208 341.561L699.647 340.847L700.647 337.157L700.46 336.572L699.36 336.905Z" fill="#07367C" stroke="white" stroke-miterlimit="10"/>
<path fill-rule="evenodd" clip-rule="evenodd" d="M343.851 293.752L349.133 291.898L352.292 287.172L354.924 281.657L355.719 280.504L356.597 279.797L357.486 279.487L358.322 279.715L359.188 280.446L360.095 281.797L360.323 283.792L360.393 287.646L361.007 288.909L362.885 289.582L374.876 291.015L375.876 290.091L377.221 284.856L378.07 284.406L379.561 283.838L385.422 283.575L387.352 283.172L388.774 282.557L390.195 280.534L390.727 280.604L391.113 282.002L392.055 287.898L392.459 289.448L393.085 291.167L394.617 292.448L396.15 293.325L400.525 294.402L413.949 295.338L416.072 294.718L415.025 298.344L414.815 299.835L414.715 301.368L414.733 302.813L414.827 303.988L414.99 304.679L414.955 305.351L414.37 305.328L412.054 304.831L411.615 304.807L411.194 304.93L410.849 305.234L410.346 305.983L410.27 306.714L409.088 310.411L408.123 311.545L407.304 312.312L406.298 315.505L405.824 316.488L400.613 316.435L399.601 316.096L398.653 315.458L397.758 314.675L396.898 314.435L395.904 314.441L394.366 314.704L393.635 315.113L393.225 315.616L393.096 316.16L393.032 316.704L393.009 317.213L393.248 318.336L394.354 319.453L393.617 321.647L393.225 322.027L393.009 322.097L392.985 322.237L393.044 322.465L393.547 323.29L394.851 324.618L395.536 325.484L395.717 325.858L395.664 326.057L394.336 326.221L394.038 326.297L393.763 326.49L393.43 326.747L393.032 326.759L392.354 327.309L390.254 331.613L389.645 332.473L388.861 333.228L388.066 333.789L385.358 335.035L385.013 335.79L384.668 336.152L384.51 336.398L383.071 338.217L382.351 339.82L381.725 341.299L382.41 342.721L385.627 347.184L386.861 348.032L388.943 349.184L389.008 349.517L389.23 350.044L389.388 350.529L390.008 350.839L390.868 350.892L392.792 350.009L393.459 350.143L393.857 350.798L399.145 353.284L399.952 354.647L400.32 355.928L400.332 356.87L400.472 358.121L400.835 359.315L401.689 359.812L402.742 360.198L403.415 360.572L404.198 361.368L404.912 362.344L405.087 362.666L405.362 363.304L405.807 364.83L405.877 365.228L405.988 366.825L403.9 368.41L399.46 372.861L398.905 373.294L398.378 373.487L397.975 373.458L397.431 373.522L397.103 373.674L396.84 373.885L393.465 377.569L393.038 378.154L392.769 378.64L392.722 378.95V379.248L392.769 379.523L392.839 379.786L393.055 380.278L393.36 380.728L394.775 382.477L394.927 382.705L395.05 382.986L395.085 383.319L394.98 383.799L394.775 384.033L394.524 384.179L387.153 386.858L384.779 387.723L378.678 390.18L376.607 391.613L372.559 396.047L371.875 396.766L371.869 396.772L370.53 395.029L369.477 394.374L368.143 394.532L364.71 396.257L363.569 396.503L362.259 396.257L360.931 395.561L353.801 390.449L347.618 386.01L342.711 382.483L340.02 379.698L335.258 373.031L332.445 370.346L326.292 365.953L311.692 355.519L304.491 350.366L298.455 346.031L293.272 342.311L290.71 339.726L290.236 339.451L287.054 335.439L286.575 333.889L285.797 330.637L285.668 329.309L285.855 328.057L286.224 327.01L286.469 325.957L286.3 324.723L284.937 321.764L284.756 320.582L284.721 319.044L284.563 317.886L284.194 316.833L283.059 314.534L282.784 313.458L282.644 311.007L282.217 310.481L278.555 308.363L276.45 307.738L275.496 307.006L275.28 306.632L275.286 306.626L284.522 295.127L286.809 290.12L286.271 288.167L284.838 285.932L277.608 277.779L287.61 272.965L287.575 272.158L274.987 254.622L290.687 248.656L294.419 248.744L295.823 251.996L296.922 253.944L304.368 262.747L310.34 273.333L311.405 273.948L315.318 274.842L321.138 277.112L327.964 280.961L341.295 289.184L342.295 290.957L343.921 292.606L343.851 293.752Z" fill="#07367C" stroke="white" stroke-miterlimit="10"/>
<path fill-rule="evenodd" clip-rule="evenodd" d="M741.025 285.732L746.734 285.218L748.436 285.68L748.635 287.399L748.512 288.37L749.079 288.288L751.133 286.849L754.408 285.329L755.122 285.814L755.73 286.674L756.631 287.311L759.24 287.148L760.24 287.37L760.603 287.458H760.608L760.842 288.639L759.485 290.435L757.385 291.628L753.227 293.178L749.43 295.57L746.237 296.389L744.687 297.056L743.628 298.682L743.107 302.572L741.82 303.174L740.189 302.425L739.381 302.42L739.042 303.385L738.978 304.25L738.773 305.075L738.352 305.794L737.667 306.338L735.907 306.444L732.783 304.291L731.081 304.063L729.8 303.426L728.338 301.712L726.864 300.413L725.548 301.01L725.396 301.969V301.975L726.349 303.578L726.355 303.584L726.349 304.631L726.051 305.578L726.062 306.227V306.233L726.448 306.76L728.373 308.158L728.566 308.637L728.835 309.31L728.841 309.316L728.794 310.678L728.32 312.147L727.419 313.387L726.373 313.609L725.173 313.158L722.553 311.614L721.904 311.374L719.897 311.468L719.336 311.281L719.342 311.269L719.552 310.737L720.061 310.591L720.821 310.521L721.459 310.304L721.64 309.713L721.629 309.708L721.225 309.38L720.412 309.286L720.073 309.304V309.281L720.014 309.017L719.628 307.678L719.529 306.871L719.652 305.83L719.81 304.742L719.845 304.046L719.833 303.724L719.78 303.431L719.154 302.87L716.862 302.18L716.353 302.127L716.037 301.864L715.171 300.595L714.545 300.138L714.106 300.536L713.621 301.139L712.872 301.215L710.199 300.647L708.129 299.951L706.865 300.033L705.976 300.191L704.929 300.021L704.514 299.887L704.157 299.694L702.379 297.255L701.981 296.576L701.607 296.144L701.121 295.857L698.805 295.061L698.091 295.009L697.6 295.079L697.377 295.243L696.939 295.19L696.36 294.98L695.161 294.365L694.693 294.348L694.424 294.523L694.353 295.553L694.166 295.442L693.728 294.81L692.757 292.938L691.44 290.944L692.716 289.68L692.014 288.212L691.481 287.51L691.44 287.107L691.628 286.773L693.072 285.434L693.628 285.03L694.201 284.171L698.781 282.942L700.255 283.679L702.104 282.796L702.618 282.644H703.589L704.654 282.72L705.871 282.603L711.673 284.013L712.451 284.1L713.176 283.96L715.838 283.849L716.505 283.726L716.774 283.609L716.973 283.492L717.306 283.176L718.365 278.298L718.622 277.345L721.167 276.567L722.799 276.333L723.132 276.064L723.641 274.52L723.875 274.093L724.682 273.438L725.273 273.841L726.542 275.841L727.466 276.421L728.724 276.789L731.081 277.023L731.309 277.198L731.432 277.438L731.456 277.742L731.379 278.093L731.374 279.444L732.175 279.86L733.275 279.936L734.129 280.269L736.03 283.241L737.404 284.75L739.118 285.504L741.025 285.732Z" fill="#07367C" stroke="white" stroke-miterlimit="10"/>
<path d="M605.964 260.099L605.098 254.036L599.036 254.902L599.902 260.965L605.964 260.099ZM465.786 341.657L471.157 338.714L468.214 333.344L462.843 336.287L465.786 341.657ZM602.95 256.9C587.498 245.312 562.075 235.389 536.078 243.459C510.047 251.539 483.715 277.569 466.28 337.29L467.72 337.711C485.085 278.232 511.17 252.761 536.522 244.892C561.908 237.012 586.835 246.689 602.05 258.1L602.95 256.9Z" fill="#FF6060"/>
<path d="M604.002 261.561L606.561 255.998L600.998 253.438L598.439 259.002L604.002 261.561ZM358.286 261.657L363.657 258.714L360.714 253.344L355.343 256.287L358.286 261.657ZM603.203 257.239C596.372 238.77 579.829 222.079 558.419 209.296C536.996 196.506 510.624 187.578 484.006 184.679C457.391 181.781 430.48 184.905 408.014 196.278C385.528 207.661 367.539 227.289 358.78 257.29L360.22 257.711C368.861 228.112 386.572 208.814 408.692 197.616C430.832 186.408 457.434 183.294 483.844 186.17C510.251 189.046 536.416 197.906 557.65 210.584C578.896 223.27 595.128 239.73 601.797 257.76L603.203 257.239Z" fill="#FF6060"/>
<path d="M602.829 261.817L606.817 257.17L602.171 253.182L598.182 257.829L602.829 261.817ZM357.277 336.821L361.321 332.223L356.723 328.179L352.679 332.777L357.277 336.821ZM603.248 257.443C602.662 249.765 598.115 243.632 590.794 238.987C583.487 234.35 573.363 231.153 561.442 229.313C537.594 225.631 506.342 227.347 475.465 234.079C444.589 240.812 414.012 252.578 391.541 269.059C369.068 285.54 354.604 306.82 356.251 332.548L357.748 332.452C356.146 307.429 370.181 286.584 392.428 270.268C414.675 253.952 445.036 242.25 475.785 235.545C506.533 228.84 537.593 227.149 561.214 230.796C573.028 232.619 582.926 235.771 589.991 240.253C597.041 244.727 601.213 250.484 601.752 257.557L603.248 257.443Z" fill="#FF6060"/>
<path d="M604.392 261.394L606.395 255.607L600.608 253.605L598.605 259.392L604.392 261.394ZM201.246 250.763L206.264 247.253L202.754 242.235L197.736 245.746L201.246 250.763ZM603.174 257.172C559.988 168.289 464.238 138.616 377.074 144.564C333.479 147.539 291.962 159.425 260.132 177.323C228.325 195.208 206.068 219.175 201.261 246.369L202.739 246.63C207.432 220.074 229.238 196.416 260.868 178.63C292.476 160.856 333.771 149.023 377.176 146.061C464.012 140.134 559.012 169.711 601.825 257.827L603.174 257.172Z" fill="#FF6060"/>
<path d="M603.443 261.727L606.726 256.557L601.556 253.274L598.274 258.444L603.443 261.727ZM187.665 155.147L193.647 153.835L192.335 147.854L186.353 149.166L187.665 155.147ZM603.232 257.337C584.885 175.154 498.509 121.789 408.408 102.33C363.326 92.5934 317.22 91.3195 278.071 99.1948C238.936 107.067 206.646 124.107 189.368 151.096L190.632 151.905C207.604 125.394 239.439 108.496 278.367 100.665C317.28 92.8376 363.174 94.0952 408.092 103.796C497.991 123.212 583.615 176.348 601.768 257.664L603.232 257.337Z" fill="#FF6060"/>
<path d="M606.727 258.44L603.439 253.273L598.273 256.561L601.561 261.727L606.727 258.44ZM463.786 415.658L469.157 412.714L466.214 407.344L460.843 410.287L463.786 415.658ZM602.663 256.768C579.833 251.695 553.908 260.555 529.39 285.525C504.874 310.493 481.701 351.619 464.28 411.291L465.72 411.711C483.099 352.183 506.176 311.309 530.46 286.576C554.742 261.846 580.167 253.306 602.337 258.233L602.663 256.768Z" fill="#FF6060"/>
<path d="M606.433 255.688L600.688 253.567L598.567 259.312L604.312 261.433L606.433 255.688ZM504.786 463.656L510.157 460.713L507.214 455.343L501.843 458.286L504.786 463.656ZM602.186 256.819C576.443 268.681 560.916 289.579 547.481 322.328C534.061 355.039 522.667 399.734 505.28 459.289L506.72 459.71C524.133 400.064 535.489 355.511 548.869 322.897C562.234 290.32 577.557 269.819 602.814 258.181L602.186 256.819Z" fill="#FF6060"/>
<path d="M602.823 261.818L606.817 257.176L602.176 253.182L598.181 257.824L602.823 261.818ZM696.999 279.331L701.33 275.001L696.999 270.671L692.669 275.001L696.999 279.331ZM603.247 257.444C602.524 247.797 607.843 239.747 616.41 234.143C624.984 228.535 636.735 225.44 648.605 225.75C660.472 226.059 672.382 229.767 681.315 237.671C690.23 245.56 696.25 257.69 696.249 275.001L697.749 275.001C697.75 257.311 691.582 244.753 682.309 236.548C673.054 228.359 660.778 224.566 648.644 224.25C636.514 223.934 624.453 227.09 615.589 232.888C606.719 238.69 600.975 247.203 601.752 257.556L603.247 257.444Z" fill="#FF6060"/>
<path d="M602.823 261.817L606.817 257.175L602.175 253.181L598.181 257.823L602.823 261.817ZM679.5 310.33L683.83 306L679.5 301.67L675.17 306L679.5 310.33ZM603.247 257.443C602.881 252.566 603.784 248.64 605.591 245.612C607.396 242.585 610.136 240.401 613.541 239.056C620.374 236.355 629.879 237.048 639.58 241.189C658.945 249.452 678.75 271.316 678.75 306H680.25C680.25 270.682 660.055 248.295 640.169 239.809C630.246 235.574 620.312 234.767 612.989 237.661C609.316 239.112 606.298 241.498 604.303 244.843C602.308 248.186 601.367 252.432 601.751 257.555L603.247 257.443Z" fill="#FF6060"/>
<path d="M602.5 261.83L606.83 257.5L602.5 253.17L598.17 257.5L602.5 261.83ZM722 301.329L726.33 296.999L722 292.669L717.67 296.999L722 301.329ZM603.25 257.5C603.25 246.929 610.398 239.516 621.43 235.477C632.47 231.435 647.26 230.848 662.098 233.921C691.802 240.073 721.25 260.759 721.25 296.999H722.75C722.75 259.739 692.448 238.675 662.402 232.452C647.365 229.338 632.28 229.907 620.914 234.069C609.539 238.233 601.75 246.071 601.75 257.5H603.25Z" fill="#FF6060"/>
<circle cx="602" cy="256" r="6" fill="#FF6060"/>
<circle cx="602" cy="256" r="4" fill="#FAFAFA"/>
</g>
<defs>
<clipPath id="clip0_428_192">
<rect width="761" height="496" fill="white"/>
</clipPath>
</defs>
</svg>
